<svg id="android.2b37a945" xmlns="http://www.w3.org/2000/svg" width="65.699" height="73" viewBox="0 0 65.699 73">
  <path id="Path_3324" data-name="Path 3324" d="M16.851,50.37a4.575,4.575,0,0,1,4.593,4.557V74.473a4.593,4.593,0,0,1-9.187,0V54.927a4.575,4.575,0,0,1,4.593-4.556Z" transform="translate(5.639 -6.029)" fill="#fff"/>
  <path id="Path_3325" data-name="Path 3325" d="M8.23,34.273c-.015.173-.028.347-.028.524V64.412a5.712,5.712,0,0,0,5.7,5.751H44.257a5.712,5.712,0,0,0,5.7-5.751V34.8c0-.177-.006-.352-.021-.524Z" transform="translate(3.773 -13.434)" fill="#fff"/>
  <path id="Path_3326" data-name="Path 3326" d="M9.318,20.064a.486.486,0,0,1,.661.176l4.845,8.325a.478.478,0,0,1-.177.656.486.486,0,0,1-.661-.176L9.141,20.72A.478.478,0,0,1,9.318,20.064Zm38.716,0a.478.478,0,0,1,.177.656l-4.846,8.325a.486.486,0,0,1-.661.176.478.478,0,0,1-.177-.656l4.846-8.325A.486.486,0,0,1,48.034,20.064Z" transform="translate(4.175 -20)" fill="#fff" fill-rule="evenodd"/>
  <path id="Path_3327" data-name="Path 3327" d="M47.8,68.47a4.575,4.575,0,0,0-4.593-4.557h0a4.575,4.575,0,0,0-4.593,4.556V88.016a4.593,4.593,0,0,0,9.186,0ZM9.186,47.605a4.593,4.593,0,0,0-9.186,0V67.152a4.593,4.593,0,0,0,9.186,0Zm56.513,0a4.593,4.593,0,0,0-9.187,0V67.152a4.593,4.593,0,0,0,9.187,0ZM30.541,20.931c-10.274.983-18.277,8.441-18.405,17.537H53.563c-.128-9.1-8.131-16.554-18.405-17.537ZM24.309,32.625a2.339,2.339,0,0,0,2.37-2.309V30.3a2.378,2.378,0,0,0-4.753.013v.013A2.341,2.341,0,0,0,24.309,32.625Zm17.739,0a2.339,2.339,0,0,0,2.37-2.309V30.3a2.378,2.378,0,0,0-4.753.013v.013A2.341,2.341,0,0,0,42.048,32.625Z" transform="translate(0 -19.572)" fill="#fff" fill-rule="evenodd"/>
</svg>
