<svg id="g12" xmlns="http://www.w3.org/2000/svg" width="25.209" height="24.713" viewBox="0 0 25.209 24.713">
  <path id="path4" d="M39.788,96.87a5.59,5.59,0,1,0,5.7,5.589,5.646,5.646,0,0,0-5.7-5.589Z" transform="translate(-27.114 -90.103)" fill="#3880ff"/>
  <g id="g8" transform="translate(18.282 2.121)">
    <ellipse id="circle6" cx="2.604" cy="2.553" rx="2.604" ry="2.553" transform="translate(0 0)" fill="#3880ff"/>
  </g>
  <path id="path10" d="M40.288,86.542l-.1-.234-.171.2a3.987,3.987,0,0,1-1.571,1.055l-.171.067.068.167a9.654,9.654,0,0,1,.785,3.85,10.082,10.082,0,0,1-7.408,9.648A10.351,10.351,0,0,1,20.2,97.007a9.9,9.9,0,0,1,1-12.036A10.4,10.4,0,0,1,33.27,82.558l.154.067.068-.167a3.832,3.832,0,0,1,1.161-1.49l.2-.167-.239-.117a12.766,12.766,0,0,0-15.877,3.535,12.173,12.173,0,0,0,.925,15.935A12.79,12.79,0,0,0,35.85,101.9a12.217,12.217,0,0,0,4.438-15.357Z" transform="translate(-16.207 -79.292)" fill="#3880ff"/>
</svg>
