<svg id="apple-seeklogo.com" xmlns="http://www.w3.org/2000/svg" width="20.526" height="24.713" viewBox="0 0 20.526 24.713">
  <path id="Path_5" data-name="Path 5" d="M17.143,13.129a5.48,5.48,0,0,0,3.383,5,13.4,13.4,0,0,1-1.745,3.515c-1.051,1.506-2.141,3.005-3.859,3.037-1.688.03-2.231-.981-4.161-.981s-2.532.95-4.13,1.012c-1.658.062-2.921-1.628-3.98-3.128-2.165-3.068-3.819-8.67-1.6-12.451a6.189,6.189,0,0,1,5.216-3.1C7.9,6,9.436,7.109,10.431,7.109s2.862-1.328,4.826-1.133a5.929,5.929,0,0,1,4.611,2.451,5.583,5.583,0,0,0-2.724,4.7M13.971,3.946A5.374,5.374,0,0,0,15.282,0a5.69,5.69,0,0,0-3.714,1.873A5.11,5.11,0,0,0,10.231,5.7a4.712,4.712,0,0,0,3.74-1.75" transform="translate(0)"/>
</svg>
