<svg xmlns="http://www.w3.org/2000/svg" width="395" height="239.246" viewBox="0 0 395 239.246">
  <g id="Group_2388" data-name="Group 2388" transform="translate(-209.573 -2742.127)">
    <g id="Page-1" transform="translate(224.922 2742.083)">
      <g id="Feature-icons" transform="translate(0.078 0.044)">
        <g id="Group-2" transform="translate(0 0)">
          <g id="Group_86-Copy" transform="translate(0 0)">
            <g id="Group_83" transform="translate(39.725 0)">
              <g id="Group_75" transform="translate(0)">
                <g id="Group_70" transform="translate(156.123)">
                  <g id="Group_66" transform="translate(81.465)">
                    <g id="Group_64" transform="translate(49.501)">
                      <path id="Path_32" d="M34.23,52.1C28.546,59.893,13.895,63.962,6.1,58.277S.336,39.307,6.021,31.517A17.46,17.46,0,0,1,34.227,52.1Z" transform="translate(-0.15 -2.763)" fill="#f1ba9c"/>
                      <path id="Path_33" d="M19.682,24.36s-7.4-5.553-13.357,1.414S-5,45.48,8.344,56.914Z" transform="translate(-0.046 -2.515)" fill="#f1ba9c"/>
                      <path id="Path_34" d="M24.245,26.4,34.732,4.595A3.343,3.343,0,0,0,33.05.3h0A2.88,2.88,0,0,0,29.339,1.54L14.709,23.347Z" transform="translate(-1.677 -0.044)" fill="#f1ba9c"/>
                      <path id="Path_35" d="M6.654,31.988l5.317-2.08a17.24,17.24,0,0,1,11.279-.446l2.866.864a3.283,3.283,0,0,1,2.322,3.385h0A3.283,3.283,0,0,1,25.1,36.752l-6.175-.13s7.228,6.443.955,17.5" transform="translate(-0.781 -3.234)" fill="none" stroke="#e29c79" stroke-linecap="round" stroke-linejoin="round" stroke-width="1.483"/>
                    </g>
                    <g id="Group_65" transform="translate(0 40.904)">
                      <path id="Path_36" d="M3.048,70.756,53.108.1,72.891,10.726,31.516,88.608A16.819,16.819,0,0,1,5.5,92.756h0A16.82,16.82,0,0,1,3.048,70.756Z" transform="translate(-0.042 -0.099)" fill="#f1ba9c"/>
                    </g>
                  </g>
                  <g id="Group_69" transform="translate(0 105.91)">
                    <g id="Group_67" transform="translate(2.927 0)">
                      <path id="Path_37" d="M21.751,9,91.861.752c10.057.207,19.122,3.614,19.619,13.671h0A19.16,19.16,0,0,1,93.366,34.5L21.981,48.788C11.911,49.326,3.319,45.358.767,35.6h0A21.237,21.237,0,0,1,21.751,9Z" transform="translate(-0.076 -0.752)" fill="#f1ba9c"/>
                    </g>
                    <g id="Group_68" transform="translate(0 1.22)">
                      <path id="Path_38" d="M61.7,2.111l7.325,41.583L26.758,51.138.318.865S33.177-.885,61.7,2.111Z" transform="translate(-0.318 -0.357)" fill="#fffefb"/>
                    </g>
                  </g>
                </g>
                <g id="Group_71" transform="translate(46.907 107.1)">
                  <path id="Path_39" d="M82.678.7h0C82.491.7,40.389-.454,20.022,27.92.223,55.5.291,104.339.313,107.251a.139.139,0,0,0,.043.1.143.143,0,0,0,.1.038H162.37a.143.143,0,0,0,.113-.054.148.148,0,0,0,.027-.123L144.42,31.458c-3.543-14.835-16.331-27.483-31.349-30.133C105.044-.091,95.632.283,82.678.7Z" transform="translate(-0.311 -0.322)" fill="#fffefb"/>
                </g>
                <g id="Group_74" transform="translate(0 107.819)">
                  <path id="Path_40" d="M64.87,23.457,5.608,92.682A19.474,19.474,0,0,0,8.068,121.1h0a19.474,19.474,0,0,0,25.055-.92L89.954,59.509Z" transform="translate(-0.574 -2.83)" fill="#f1ba9c"/>
                  <g id="Group_72" transform="translate(19.769 90.48)">
                    <path id="Path_41" d="M.717,32.507h91.82l-1.8-17.941L16.121,2.214Z" transform="translate(-0.717 -0.594)" fill="#f1ba9c"/>
                    <path id="Path_42" d="M92.168,17.674S132.008,6.607,142.137,33.98H102.709Z" transform="translate(-10.888 -2.068)" fill="#f1ba9c"/>
                    <path id="Path_43" d="M124.405,23.933s11.455,2.64,14.345,10.989" transform="translate(-14.474 -3.01)" fill="none" stroke="#e29c79" stroke-linecap="round" stroke-linejoin="round" stroke-width="1.483"/>
                    <path id="Path_44" d="M113.339,26.867s9.835,1.179,13.541,8.382" transform="translate(-13.243 -3.336)" fill="none" stroke="#e29c79" stroke-linecap="round" stroke-linejoin="round" stroke-width="1.483"/>
                    <line id="Line_8" x1="27.349" y1="4.54" transform="translate(6.348 0)" fill="none" stroke="#e29c79" stroke-linecap="round" stroke-linejoin="round" stroke-width="1.483"/>
                  </g>
                  <g id="Group_73" transform="translate(33.177 0)">
                    <path id="Path_45" d="M88.907.249S35.8-.441.774,50.616L46.788,82.574,87.463,41.7Z" transform="translate(-0.774 -0.248)" fill="#fffefb"/>
                    <path id="Path_46" d="M73.356,59.428,46.812,85.905l-3.693-2.567" transform="translate(-5.484 -6.83)" fill="none" stroke="#d3d6dd" stroke-linecap="round" stroke-linejoin="round" stroke-width="1.63"/>
                  </g>
                </g>
              </g>
              <g id="Group_78" transform="translate(68.029 135.395)">
                <path id="Path_47" d="M4.36,115.176H98.7v-8.3H4.36a4.151,4.151,0,0,0-4.152,4.151h0a4.152,4.152,0,0,0,4.152,4.149Z" transform="translate(-0.209 -12.184)" fill="#b5bcc9"/>
                <g id="Group_77" transform="translate(89.828 0)">
                  <path id="Path_48" d="M.5,103.326H133.289l23.9-94.135A7.108,7.108,0,0,0,150.3.334H32.183a7.107,7.107,0,0,0-6.889,5.358Z" transform="translate(-0.502 -0.334)" fill="#b5bcc9"/>
                  <g id="Group_76-Clipped" transform="translate(6.189)">
                    <g id="Group_76" transform="translate(0)">
                      <g id="Path_49">
                        <path id="Path_3400" data-name="Path 3400" d="M.393,103.326H133.181l23.9-94.135A7.108,7.108,0,0,0,150.2.334H32.074a7.108,7.108,0,0,0-6.889,5.36Z" transform="translate(-0.393 -0.334)" fill="#d3d6dd"/>
                      </g>
                    </g>
                  </g>
                </g>
                <ellipse id="Ellipse_6" cx="12.556" cy="10.852" rx="12.556" ry="10.852" transform="translate(163.357 57.576) rotate(-60)" fill="#feffff"/>
              </g>
              <g id="Group_82" transform="translate(112.195 5.613)">
                <path id="Path_51" d="M.561,38.555s-3.368,19.8,20.475,40.026l2.444-9.547Z" transform="translate(-0.398 -4.441)" fill="#470b09"/>
                <path id="Path_52" d="M62.354,23.833s15.116.15,13.508-9.765C73.166-2.556,38.91-1.547,26.791,3.209Z" transform="translate(-3.333 -0.172)" fill="#470b09"/>
                <path id="Path_53" d="M69.1,39.211A35.009,35.009,0,0,1,31.823,71.8C12.531,70.5-.725,53.765.571,34.475S17.227.641,36.515,1.937A35.009,35.009,0,0,1,69.1,39.211Z" transform="translate(-0.407 -0.359)" fill="#470b09"/>
                <circle id="Ellipse_7" cx="9.42" cy="9.42" r="9.42" transform="translate(55.754 57.602) rotate(-61.838)" fill="#e29c79"/>
                <path id="Path_54" d="M54.087,85.221l-3.862,25.4A16.855,16.855,0,0,1,30.2,124.606h0c-9.293-1.892-17.141-3.152-15.006-12.39L27.8,58.167Z" transform="translate(-2.004 -6.622)" fill="#f1ba9c"/>
                <path id="Path_55" d="M52.412,105.907s-27.615-6.591-27-29.916L54.747,90.83Z" transform="translate(-3.179 -8.604)" fill="#e29c79"/>
                <path id="Path_56" d="M56.623,11.1A23.875,23.875,0,0,1,69.695,25.557c3.316,9.718,8.42,28.547,4.58,43.751C71.038,82.122,60.009,89.736,43.667,86.5c0,0-20.885-3.391-23.61-29.12C16.289,21.8,37.931,3.23,56.623,11.1Z" transform="translate(-2.536 -1.188)" fill="#f1ba9c"/>
                <g id="Group_80" transform="translate(24.028 25.682)">
                  <path id="Path_57" d="M47.252,25.908A2.155,2.155,0,1,0,48.8,23.279,2.155,2.155,0,0,0,47.252,25.908Z" transform="translate(-5.274 -3.274)" fill="#101010"/>
                  <path id="Path_58" d="M26.754,26.253A2.155,2.155,0,1,0,28.3,23.626a2.155,2.155,0,0,0-1.545,2.627Z" transform="translate(-2.994 -3.313)" fill="#101010"/>
                  <path id="Path_59" d="M42,28.593l3.109,6.05-2.582,1.589" transform="translate(-4.698 -3.873)" fill="none" stroke="#470b09" stroke-linecap="round" stroke-linejoin="round" stroke-width="1.398"/>
                  <path id="Path_60" d="M30.728,3.495h0a2.968,2.968,0,0,1-2.823,3.378A34.121,34.121,0,0,0,17.848,8.685a2.593,2.593,0,0,1-3.316-1.409h0A2.7,2.7,0,0,1,15.744,4,17.007,17.007,0,0,1,27.956.93,3.05,3.05,0,0,1,30.728,3.495Z" transform="translate(-1.624 -0.779)" fill="#470b09"/>
                  <path id="Path_61" d="M42.769,10.642h0c.179,1.707,1.328,3.143,2.479,3.092A16.693,16.693,0,0,1,52.1,14.818c.943.382,1.778-.294,1.874-1.589h0a3.657,3.657,0,0,0-1.414-3.1C50.784,8.813,48,6.892,44.07,7.97,43.185,8.212,42.624,9.267,42.769,10.642Z" transform="translate(-4.78 -1.544)" fill="#470b09"/>
                  <g id="Group_79" transform="translate(0 8.589)">
                    <path id="Path_62" d="M34.865,13.452a11.163,11.163,0,1,1-11.8-10.746A11.286,11.286,0,0,1,34.865,13.452Z" transform="translate(-1.421 -0.939)" fill="#fff" opacity="0.26"/>
                    <ellipse id="Ellipse_8" cx="9.564" cy="10.952" rx="9.564" ry="10.952" transform="matrix(0.998, -0.057, 0.057, 0.998, 39.502, 1.098)" fill="#fff" opacity="0.26"/>
                    <path id="Path_63" d="M34.865,13.452a11.163,11.163,0,1,1-11.8-10.746A11.286,11.286,0,0,1,34.865,13.452Z" transform="translate(-1.421 -0.939)" fill="none" stroke="#fff" stroke-linecap="round" stroke-linejoin="round" stroke-width="1.436"/>
                    <ellipse id="Ellipse_9" cx="9.564" cy="10.952" rx="9.564" ry="10.952" transform="matrix(0.998, -0.057, 0.057, 0.998, 39.502, 1.098)" fill="none" stroke="#fff" stroke-linecap="round" stroke-linejoin="round" stroke-width="1.436"/>
                    <path id="Path_64" d="M37.658,14.609s3.184-3.049,6.692-.48" transform="translate(-4.214 -2.097)" fill="none" stroke="#fff" stroke-linecap="round" stroke-linejoin="round" stroke-width="1.436"/>
                    <line id="Line_9" x1="11.156" y2="2.432" transform="translate(0 13.794)" fill="none" stroke="#fff" stroke-linecap="round" stroke-linejoin="round" stroke-width="1.436"/>
                  </g>
                  <path id="Path_65" d="M30.988,42.755c-.092.269,4.977,3.464,13.133.205" transform="translate(-3.472 -5.448)" fill="none" stroke="#470b09" stroke-linecap="round" stroke-linejoin="round" stroke-width="1.398"/>
                </g>
                <path id="Path_66" d="M23.72,53.879s4.236-2.033,2.724-15.767,6.457-20.32,13.408-19.66,21.5,3.31,29.613-.763c0,0-10.8-14.885-34.107-8.378S16.81,50.873,16.81,50.873Z" transform="translate(-2.179 -1.005)" fill="#470b09"/>
                <g id="Group_81" transform="translate(2.69 46.066)">
                  <path id="Path_67" d="M1.253,15.446a11.432,11.432,0,1,0,.887-8.7,11.432,11.432,0,0,0-.887,8.7Z" transform="translate(-0.772 -0.73)" fill="#f1ba9c"/>
                  <path id="Path_68" d="M7.845,9.786s8.389-2.381,10.589,6.85" transform="translate(-1.559 -1.707)" fill="none" stroke="#470b09" stroke-linecap="round" stroke-linejoin="round" stroke-width="1.398"/>
                </g>
                <path id="Path_69" d="M6.628,115.226l17.592-.865,22.335.354,7.9-.157S61.116,136.9,33.03,137.313,6.628,115.226,6.628,115.226Z" transform="translate(-1.089 -12.872)" fill="#f1ba9c"/>
              </g>
            </g>
            <g id="Group_85" transform="translate(-6.06 167.822)">
              <path id="Path_70" d="M2.873,15.177,6.042,66.311a6.463,6.463,0,0,0,6.448,6.027h21.8a6.462,6.462,0,0,0,6.45-6.058l2.945-51.1Z" transform="translate(-0.389 -1.773)" fill="#fff"/>
              <g id="Group_84" transform="translate(0 0)">
                <rect id="Rectangle_33" width="45.785" height="8.397" transform="translate(0 5.006)" fill="#bf433a"/>
                <path id="Path_71" d="M5.177,7.384,7.737.1H39.649l2.265,7.289Z" transform="translate(-0.645 -0.095)" fill="#bf433a"/>
                <line id="Line_10" x2="34.324" transform="translate(5.74 4.563)" fill="none" stroke="#fff" stroke-linecap="round" stroke-linejoin="round" stroke-width="0.932"/>
              </g>
              <path id="Path_72" d="M42.389,52.691H4.07L2.407,31.427H44.052Z" transform="translate(-0.337 -3.58)" fill="#ff8c3e"/>
            </g>
          </g>
        </g>
      </g>
    </g>
    <line id="Line_72" data-name="Line 72" x2="395" transform="translate(209.573 2980.873)" fill="none" stroke="#c5af9b" stroke-width="1"/>
  </g>
</svg>
