<svg xmlns="http://www.w3.org/2000/svg" xmlns:xlink="http://www.w3.org/1999/xlink" width="649.384" height="678.079" viewBox="0 0 649.384 678.079">
  <defs>
    <clipPath id="clip-path">
      <rect id="Rectangle_498" data-name="Rectangle 498" width="504.394" height="549.087" fill="none"/>
    </clipPath>
  </defs>
  <g id="Group_2245" data-name="Group 2245" transform="matrix(0.951, 0.309, -0.309, 0.951, 169.677, 0)" opacity="0.09">
    <g id="Group_2244" data-name="Group 2244" clip-path="url(#clip-path)">
      <path id="Path_3288" data-name="Path 3288" d="M28.935,137.2a197.727,197.727,0,0,0,53.926,2.521c20.867-1.852,43.965,1.231,67.048,9.4l59.322-54.982Z" transform="translate(65.067 211.681)" fill="#fff"/>
      <path id="Path_3289" data-name="Path 3289" d="M28.935,137.2a197.727,197.727,0,0,0,53.926,2.521c20.867-1.852,43.965,1.231,67.048,9.4l59.322-54.982Z" transform="translate(65.067 211.681)" fill="none" stroke="#231f20" stroke-miterlimit="10" stroke-width="1"/>
      <path id="Path_3290" data-name="Path 3290" d="M20.443,66.677C3.323,85.2-4.026,111.536,3.362,136.6a72.779,72.779,0,0,0,25.451,37.2l6.5,3.814A178.462,178.462,0,0,0,92.877,198.94l180.3-43.062Z" transform="translate(1.125 149.94)" fill="#fff"/>
      <path id="Path_3291" data-name="Path 3291" d="M20.443,66.677C3.323,85.2-4.026,111.536,3.362,136.6a72.779,72.779,0,0,0,25.451,37.2l6.5,3.814A178.462,178.462,0,0,0,92.877,198.94l180.3-43.062Z" transform="translate(1.125 149.94)" fill="none" stroke="#231f20" stroke-miterlimit="10" stroke-width="1"/>
      <path id="Path_3292" data-name="Path 3292" d="M116.129,245.631a173.961,173.961,0,0,0,17.579,11.822l6.5,3.814a72.741,72.741,0,0,0,44.888,4.058,71.6,71.6,0,0,0,43.787-30.593l-80.059-110.08Z" transform="translate(261.144 280.308)" fill="#fff"/>
      <path id="Path_3293" data-name="Path 3293" d="M116.129,245.631a173.961,173.961,0,0,0,17.579,11.822l6.5,3.814a72.741,72.741,0,0,0,44.888,4.058,71.6,71.6,0,0,0,43.787-30.593l-80.059-110.08Z" transform="translate(261.144 280.308)" fill="none" stroke="#231f20" stroke-miterlimit="10" stroke-width="1"/>
      <path id="Path_3294" data-name="Path 3294" d="M84.432,94.133l37.6,131.61a137.871,137.871,0,0,1,7.712,14.675c13.04,29.1,32.582,54.686,57.659,73.841l32.7-120.98Z" transform="translate(189.866 211.681)" fill="#fff"/>
      <path id="Path_3295" data-name="Path 3295" d="M84.432,94.133l37.6,131.61a137.871,137.871,0,0,1,7.712,14.675c13.04,29.1,32.582,54.686,57.659,73.841l32.7-120.98Z" transform="translate(189.866 211.681)" fill="none" stroke="#231f20" stroke-miterlimit="10" stroke-width="1"/>
      <path id="Path_3296" data-name="Path 3296" d="M66.172,149.115A195.252,195.252,0,0,1,99.806,164.78c27.738,16.27,49.4,37.874,63.292,60.963l-37.6-131.61Z" transform="translate(148.804 211.681)" fill="#fff"/>
      <path id="Path_3297" data-name="Path 3297" d="M66.172,149.115A195.252,195.252,0,0,1,99.806,164.78c27.738,16.27,49.4,37.874,63.292,60.963l-37.6-131.61Z" transform="translate(148.804 211.681)" fill="none" stroke="#231f20" stroke-miterlimit="10" stroke-width="1"/>
      <path id="Path_3298" data-name="Path 3298" d="M248.524,198.708a70.655,70.655,0,0,1-41.165-10.6l-2.407-1.533a27.535,27.535,0,0,1-9.113-14.437c-3.236-12.686,3.31-25.86,15.022-31.711l7.855-3.928L171.308,37.564,26.1,116.934a76.361,76.361,0,0,0-19.46,15.211l252.73,89.2Z" transform="translate(14.929 84.472)" fill="#fff"/>
      <path id="Path_3299" data-name="Path 3299" d="M248.524,198.708a70.655,70.655,0,0,1-41.165-10.6l-2.407-1.533a27.535,27.535,0,0,1-9.113-14.437c-3.236-12.686,3.31-25.86,15.022-31.711l7.855-3.928L171.308,37.564,26.1,116.934a76.361,76.361,0,0,0-19.46,15.211l252.73,89.2Z" transform="translate(14.929 84.472)" fill="none" stroke="#231f20" stroke-miterlimit="10" stroke-width="1"/>
      <path id="Path_3300" data-name="Path 3300" d="M158.629,6.362,113.546,30.838l-18.664,10.2H222.7Z" transform="translate(213.365 14.307)" fill="#fff"/>
      <path id="Path_3301" data-name="Path 3301" d="M158.629,6.362,113.546,30.838l-18.664,10.2H222.7Z" transform="translate(213.365 14.307)" fill="none" stroke="#231f20" stroke-miterlimit="10" stroke-width="1"/>
      <path id="Path_3302" data-name="Path 3302" d="M207.269,131.44l24.489-12.147a28.058,28.058,0,0,1,11.234-2.914l64.159-99.343H179.336L57.326,83.728l47.406,98.941Z" transform="translate(128.912 38.307)" fill="#fff"/>
      <path id="Path_3303" data-name="Path 3303" d="M207.269,131.44l24.489-12.147a28.058,28.058,0,0,1,11.234-2.914l64.159-99.343H179.336L57.326,83.728l47.406,98.941Z" transform="translate(128.912 38.307)" fill="none" stroke="#231f20" stroke-miterlimit="10" stroke-width="1"/>
      <path id="Path_3304" data-name="Path 3304" d="M81.8,87.208c-.234.013-.468,0-.7.013l10.848,22.634L104.306,90.7a59.694,59.694,0,0,0-22.511-3.5" transform="translate(182.36 195.962)" fill="#fff"/>
      <path id="Path_3305" data-name="Path 3305" d="M81.8,87.208c-.234.013-.468,0-.7.013l10.848,22.634L104.306,90.7A59.694,59.694,0,0,0,81.8,87.208Z" transform="translate(182.36 195.962)" fill="none" stroke="#231f20" stroke-miterlimit="10" stroke-width="1"/>
      <path id="Path_3306" data-name="Path 3306" d="M182.035,116.378a28.121,28.121,0,0,1,29.336,28.764l-.663,27.328-3.8,123.14c-.4,13.06-9.577,24.515-22.416,26.935a27.578,27.578,0,0,1-16.936-2.164l-2.407-1.533a70.761,70.761,0,0,1-27.28-33.475c-4.431-10.958-13.395-21.7-25.821-29.622A73.028,73.028,0,0,0,96.8,248.359L84.433,267.507,220.1,366.652,246.195,17.035Z" transform="translate(189.868 38.307)" fill="#fff"/>
      <path id="Path_3307" data-name="Path 3307" d="M182.035,116.378a28.121,28.121,0,0,1,29.336,28.764l-.663,27.328-3.8,123.14c-.4,13.06-9.577,24.515-22.416,26.935a27.578,27.578,0,0,1-16.936-2.164l-2.407-1.533a70.761,70.761,0,0,1-27.28-33.475c-4.431-10.958-13.395-21.7-25.821-29.622A73.028,73.028,0,0,0,96.8,248.359L84.433,267.507,220.1,366.652,246.195,17.035Z" transform="translate(189.868 38.307)" fill="none" stroke="#231f20" stroke-miterlimit="10" stroke-width="1"/>
      <path id="Path_3308" data-name="Path 3308" d="M218.39,114.719l-92.2,32.27,80.059,110.08a76.367,76.367,0,0,0,12.738-42.656Z" transform="translate(283.778 257.974)" fill="#fff"/>
      <path id="Path_3309" data-name="Path 3309" d="M218.39,114.719l-92.2,32.27,80.059,110.08a76.367,76.367,0,0,0,12.738-42.656Z" transform="translate(283.778 257.974)" fill="none" stroke="#231f20" stroke-miterlimit="10" stroke-width="1"/>
      <path id="Path_3310" data-name="Path 3310" d="M126.194,366.652l92.2-32.27-1.329-219.258L152.285,17.035Z" transform="translate(283.778 38.308)" fill="#fff"/>
      <path id="Path_3311" data-name="Path 3311" d="M126.194,366.652l92.2-32.27-1.329-219.258L152.285,17.035Z" transform="translate(283.778 38.308)" fill="none" stroke="#231f20" stroke-miterlimit="10" stroke-width="1"/>
      <path id="Path_3312" data-name="Path 3312" d="M218.863,20.573a75.151,75.151,0,0,0-13.1-9.779,73.527,73.527,0,0,0-72.915-1.209L114.5,19.543,178.573,54.22Z" transform="translate(257.49 1.125)" fill="#fff"/>
      <path id="Path_3313" data-name="Path 3313" d="M218.863,20.573a75.151,75.151,0,0,0-13.1-9.779,73.527,73.527,0,0,0-72.915-1.209L114.5,19.543,178.573,54.22Z" transform="translate(257.49 1.125)" fill="none" stroke="#231f20" stroke-miterlimit="10" stroke-width="1"/>
      <path id="Path_3314" data-name="Path 3314" d="M199,119.787l-.039-6.3-.906-72.168a74.226,74.226,0,0,0-5.136-26.354l-58.7,6.735Z" transform="translate(301.838 33.648)" fill="#fff"/>
      <path id="Path_3315" data-name="Path 3315" d="M199,119.787l-.039-6.3-.906-72.168a74.226,74.226,0,0,0-5.136-26.354l-58.7,6.735Z" transform="translate(301.838 33.648)" fill="none" stroke="#231f20" stroke-miterlimit="10" stroke-width="1"/>
      <path id="Path_3316" data-name="Path 3316" d="M192.92,33.592A73.266,73.266,0,0,0,174.513,6.679L134.225,40.326Z" transform="translate(301.838 15.019)" fill="#fff"/>
      <path id="Path_3317" data-name="Path 3317" d="M192.92,33.592A73.266,73.266,0,0,0,174.513,6.679L134.225,40.326Z" transform="translate(301.838 15.019)" fill="none" stroke="#231f20" stroke-miterlimit="10" stroke-width="1"/>
    </g>
  </g>
</svg>
