<svg xmlns="http://www.w3.org/2000/svg" xmlns:xlink="http://www.w3.org/1999/xlink" width="159.331" height="188.821" viewBox="0 0 159.331 188.821">
  <defs>
    <clipPath id="clip-path">
      <rect id="Rectangle_497" data-name="Rectangle 497" width="130.66" height="142.313" fill="none"/>
    </clipPath>
  </defs>
  <g id="Group_2243" data-name="Group 2243" transform="translate(-621.243 -5522.846)">
    <path id="Subtraction_2" data-name="Subtraction 2" d="M81.154,119.065h0c-.469,0-.953-.016-1.437-.048-6.6-.432-12.017-4.806-16.094-13-3.342-6.718-5.007-14.475-5.9-18.642-.191-.893-.357-1.664-.5-2.226a46.08,46.08,0,0,0-23.348-23.4,52,52,0,0,0-15.094-4.46,30.424,30.424,0,0,1-7.9-3.669A27.312,27.312,0,0,1,4.65,48.135,23.147,23.147,0,0,1,.119,39.422a15.486,15.486,0,0,1,1.039-7.856A17.36,17.36,0,0,1,4.845,26.1a21.7,21.7,0,0,1,5.8-4.227L94.23.979a35.472,35.472,0,0,1,8.2-.979,23.753,23.753,0,0,1,7.547,1.112,13.679,13.679,0,0,1,6.587,4.494A15.809,15.809,0,0,1,119.6,13.02a27.835,27.835,0,0,1,.008,7.759,40.531,40.531,0,0,1-2.093,8.593L98.7,101.312a26.588,26.588,0,0,1-2.869,8.877,17.542,17.542,0,0,1-5.292,6.1A16.035,16.035,0,0,1,81.154,119.065Zm.129-86.454a12.608,12.608,0,0,0-2.89.345L48.918,40.324a7.641,7.641,0,0,0-2.046,1.491,5.627,5.627,0,0,0-1.666,4.7A8.753,8.753,0,0,0,49,51.518a10.655,10.655,0,0,0,2.784,1.293,18.357,18.357,0,0,1,5.322,1.573,17.3,17.3,0,0,1,4.478,2.96,15.647,15.647,0,0,1,3.755,5.292c.05.2.111.485.175.785.634,2.955,2.318,10.8,7.756,11.159.168.011.338.017.506.017a5.649,5.649,0,0,0,5.175-3.13,9.3,9.3,0,0,0,1.012-3.13L86.6,42.968a14.134,14.134,0,0,0,.738-3.03,7.282,7.282,0,0,0-1.075-5.35A6.186,6.186,0,0,0,81.282,32.611Z" transform="translate(648.696 5580.602)" opacity="0.16"/>
    <g id="Group_2242" data-name="Group 2242" transform="matrix(0.985, 0.174, -0.174, 0.985, 645.956, 5522.846)">
      <g id="Group_2235" data-name="Group 2235" clip-path="url(#clip-path)">
        <path id="Path_3271" data-name="Path 3271" d="M0,11.228a51.552,51.552,0,0,0,14.06.657,41.852,41.852,0,0,1,17.481,2.45L47.007,0Z" transform="translate(24.085 79.309)" fill="#00a1b4"/>
        <path id="Path_3272" data-name="Path 3272" d="M5.2,0A19,19,0,0,0,.746,18.23a18.975,18.975,0,0,0,6.636,9.7l1.7.994a46.529,46.529,0,0,0,15.008,5.561L71.092,23.257Z" transform="translate(0 56.054)" fill="#ffd401"/>
        <path id="Path_3273" data-name="Path 3273" d="M0,31.542a45.356,45.356,0,0,0,4.583,3.082l1.7.994a18.965,18.965,0,0,0,11.7,1.058A18.668,18.668,0,0,0,29.4,28.7L8.525,0Z" transform="translate(97.941 105.159)" fill="#00bcd0"/>
        <path id="Path_3274" data-name="Path 3274" d="M0,0,9.8,34.314a35.947,35.947,0,0,1,2.011,3.826A49.643,49.643,0,0,0,26.848,57.392l8.525-31.542Z" transform="translate(71.092 79.309)" fill="#64e3ed"/>
        <path id="Path_3275" data-name="Path 3275" d="M0,14.335a50.907,50.907,0,0,1,8.769,4.084,46.851,46.851,0,0,1,16.5,15.894L15.467,0Z" transform="translate(55.626 79.309)" fill="#00d0e2"/>
        <path id="Path_3276" data-name="Path 3276" d="M63.065,42.014a18.421,18.421,0,0,1-10.733-2.763l-.628-.4a7.179,7.179,0,0,1-2.376-3.764,7.314,7.314,0,0,1,3.917-8.268L55.294,25.8,42.933,0,5.074,20.694A19.909,19.909,0,0,0,0,24.659L65.893,47.915Z" transform="translate(5.2 31.394)" fill="#f04e3f"/>
        <path id="Path_3277" data-name="Path 3277" d="M16.62,0,4.866,6.381,0,9.04H33.324Z" transform="translate(79.944 4.965)" fill="#9a258e"/>
        <path id="Path_3278" data-name="Path 3278" d="M39.094,29.828l6.385-3.167a7.315,7.315,0,0,1,2.929-.76L65.135,0H31.811L0,17.389l12.36,25.8Z" transform="translate(48.133 14.006)" fill="#ee0f6a"/>
        <path id="Path_3279" data-name="Path 3279" d="M.183.017C.122.02.061.017,0,.02l2.828,5.9L6.052.928A15.564,15.564,0,0,0,.183.017" transform="translate(68.265 73.389)" fill="#ee0f6a"/>
        <path id="Path_3280" data-name="Path 3280" d="M25.447,25.9A7.332,7.332,0,0,1,33.1,33.4l-.173,7.125-.992,32.106a7.321,7.321,0,0,1-5.844,7.023,7.19,7.19,0,0,1-4.416-.564l-.628-.4a18.449,18.449,0,0,1-7.112-8.728A17.065,17.065,0,0,0,7.2,62.239a19.04,19.04,0,0,0-3.975-1.928L0,65.3,35.373,91.153,42.175,0Z" transform="translate(71.093 14.006)" fill="#62bb45"/>
        <path id="Path_3281" data-name="Path 3281" d="M24.038,0,0,8.413l20.873,28.7a19.911,19.911,0,0,0,3.321-11.121Z" transform="translate(106.466 96.746)" fill="#00d0e2"/>
        <path id="Path_3282" data-name="Path 3282" d="M0,91.153,24.038,82.74l-.346-57.166L6.8,0Z" transform="translate(106.466 14.006)" fill="#fdaf17"/>
        <path id="Path_3283" data-name="Path 3283" d="M27.209,5.233a19.594,19.594,0,0,0-3.416-2.55A19.17,19.17,0,0,0,4.782,2.369L0,4.965l16.7,9.041Z" transform="translate(96.564 0)" fill="#9a258e"/>
        <path id="Path_3284" data-name="Path 3284" d="M16.889,27.33l-.01-1.643L16.642,6.871A19.353,19.353,0,0,0,15.3,0L0,1.756Z" transform="translate(113.268 12.25)" fill="#ef4e3f"/>
        <path id="Path_3285" data-name="Path 3285" d="M15.3,7.017A19.1,19.1,0,0,0,10.5,0L0,8.773Z" transform="translate(113.268 5.234)" fill="#ee0f6a"/>
      </g>
    </g>
  </g>
</svg>
