<svg xmlns="http://www.w3.org/2000/svg" xmlns:xlink="http://www.w3.org/1999/xlink" width="629.25" height="200.753" viewBox="0 0 629.25 200.753">
  <defs>
    <clipPath id="clip-path">
      <rect id="Rectangle_556" data-name="Rectangle 556" width="68.574" height="102.253" fill="#fff"/>
    </clipPath>
  </defs>
  <g id="Group_2408" data-name="Group 2408" transform="translate(-481.5 -1085.167)">
    <g id="android-black.db2883ee" transform="translate(482 1124.612)">
      <path id="Path_3401" data-name="Path 3401" d="M70.353,0H10.05A10.05,10.05,0,0,0,0,10.05V150.757a10.051,10.051,0,0,0,10.05,10.05h60.3a10.051,10.051,0,0,0,10.05-10.05V10.05A10.05,10.05,0,0,0,70.353,0Z" fill="none" stroke="#000" stroke-width="1"/>
      <path id="Path_3402" data-name="Path 3402" d="M70.225.5H9.922A9.422,9.422,0,0,0,.5,9.922V150.629a9.422,9.422,0,0,0,9.422,9.422h60.3a9.422,9.422,0,0,0,9.422-9.422V9.922A9.422,9.422,0,0,0,70.225.5Z" transform="translate(0.128 0.128)" fill="none" stroke="#000" stroke-width="1"/>
      <path id="Path_3403" data-name="Path 3403" d="M70.353,4H10.05A10.05,10.05,0,0,0,0,14.05V144.706a10.051,10.051,0,0,0,10.05,10.05h60.3a10.051,10.051,0,0,0,10.05-10.05V14.05A10.05,10.05,0,0,0,70.353,4Z" transform="translate(0 1.025)" fill="none" stroke="#000" stroke-width="1"/>
      <path id="Path_3404" data-name="Path 3404" d="M70.225,4.5H9.922A9.422,9.422,0,0,0,.5,13.922V144.578A9.422,9.422,0,0,0,9.922,154h60.3a9.422,9.422,0,0,0,9.422-9.422V13.922A9.422,9.422,0,0,0,70.225,4.5Z" transform="translate(0.128 1.153)" fill="none" stroke="#000" stroke-width="1"/>
    </g>
    <g id="tablet-black.2bd514ff" transform="translate(594.095 1085.667)">
      <path id="Path_3406" data-name="Path 3406" d="M128.015.5H9.922A9.422,9.422,0,0,0,.5,9.922V190.831a9.422,9.422,0,0,0,9.422,9.422H128.015a9.423,9.423,0,0,0,9.422-9.422V9.922A9.422,9.422,0,0,0,128.015.5Z" transform="translate(-0.5 -0.5)" fill="rgba(0,0,0,0)" stroke="#000" stroke-width="1"/>
      <path id="Path_3407" data-name="Path 3407" d="M128.631,6H8.025A5.025,5.025,0,0,0,3,11.025V178.114a5.025,5.025,0,0,0,5.025,5.025H128.631a5.025,5.025,0,0,0,5.025-5.025V11.025A5.025,5.025,0,0,0,128.631,6Z" transform="translate(0.141 0.91)" fill="#121212" stroke="#000" stroke-width="1"/>
      <path id="Path_3408" data-name="Path 3408" d="M128.5,6.5H7.9a4.4,4.4,0,0,0-4.4,4.4V177.986a4.4,4.4,0,0,0,4.4,4.4H128.5a4.4,4.4,0,0,0,4.4-4.4V10.9A4.4,4.4,0,0,0,128.5,6.5Z" transform="translate(0.269 1.038)" fill="#fff" stroke="#000" stroke-width="1"/>
      <path id="Path_3409" data-name="Path 3409" d="M55.884,5.769A1.884,1.884,0,1,0,54,3.884,1.884,1.884,0,0,0,55.884,5.769Z" transform="translate(13.212 -0.116)" fill="#fff" stroke="#000" stroke-width="1"/>
      <path id="Path_3410" data-name="Path 3410" d="M60.382,149.5H51.421a3.588,3.588,0,1,0,0,7.145h8.962a3.588,3.588,0,1,0,0-7.145Z" transform="translate(12.803 38.946)" fill="rgba(0,0,0,0)" stroke="#000" stroke-width="1"/>
    </g>
    <g id="a-watch-black.b4b0335d" transform="translate(762.694 1132.15)">
      <path id="Path_3411" data-name="Path 3411" d="M57.36,131.5H18.394c-.034-2.364-.228-11.1-1.313-20.678a115.974,115.974,0,0,0-3.009-16.882C12.7,88.861,11.024,85.023,9.083,82.5H66.695C64.84,85,63.22,88.816,61.869,93.881a122.932,122.932,0,0,0-3.03,16.883C57.7,120.363,57.419,129.138,57.36,131.5Z" transform="translate(2.328 21.145)" fill="#fff" stroke="#000" stroke-width="1"/>
      <path id="Path_3412" data-name="Path 3412" d="M10.58,83.256c3.425,5.177,5.911,14.444,7.4,27.62,1.008,8.9,1.25,17.079,1.306,20.12H57.027c.089-3.035.412-11.252,1.467-20.179,1.558-13.18,4-22.427,7.284-27.561ZM8,82H68.3c-9.431,10.237-10.05,50.252-10.05,50.252H18.05S17.892,92.376,8,82Z" transform="translate(2.05 21.017)" fill="#fff" stroke="#000" stroke-width="1"/>
      <path id="Path_3413" data-name="Path 3413" d="M18.394.5H57.36c.034,2.365.228,11.1,1.313,20.678a115.975,115.975,0,0,0,3.009,16.881c1.373,5.076,3.048,8.914,4.989,11.437H9.059c1.855-2.5,3.475-6.316,4.826-11.381a122.932,122.932,0,0,0,3.03-16.883C18.049,11.633,18.334,2.859,18.394.5Z" transform="translate(2.322 0.128)" fill="#fff" stroke="#000" stroke-width="1"/>
      <path id="Path_3414" data-name="Path 3414" d="M65.723,49c-3.425-5.177-5.911-14.444-7.4-27.619-1.008-8.9-1.25-17.08-1.306-20.12H19.276c-.089,3.035-.412,11.252-1.467,20.178-1.558,13.18-4,22.427-7.284,27.561Zm2.58,1.256H8C17.431,40.015,18.05,0,18.05,0h40.2S58.411,39.877,68.3,50.252Z" transform="translate(2.05)" fill="#fff" stroke="#000" stroke-width="1"/>
      <path id="Path_3415" data-name="Path 3415" d="M70.05,53H60V73.1H70.05Z" transform="translate(15.378 13.584)" fill="#fff" stroke="#000" stroke-width="1"/>
      <path id="Path_3416" data-name="Path 3416" d="M69.294,53.5H60.5V72.345h8.794Z" transform="translate(15.507 13.712)" fill="none" stroke="#000" stroke-width="1"/>
      <path id="Path_3417" data-name="Path 3417" d="M80.4,69.2a40.2,40.2,0,1,0-40.2,40.2A40.2,40.2,0,0,0,80.4,69.2Z" transform="translate(0 7.433)" fill="#fff" stroke="#000" stroke-width="1"/>
      <path id="Path_3418" data-name="Path 3418" d="M79.647,69.074a39.574,39.574,0,1,0-39.574,39.574A39.574,39.574,0,0,0,79.647,69.074Z" transform="translate(0.128 7.561)" fill="none" stroke="#000" stroke-width="1"/>
      <path id="Path_3419" data-name="Path 3419" d="M75.866,68.433a36.433,36.433,0,1,0-36.433,36.433A36.433,36.433,0,0,0,75.866,68.433Z" transform="translate(0.769 8.202)" fill="#fff" stroke="#000" stroke-width="1"/>
      <path id="Path_3420" data-name="Path 3420" d="M75.11,68.3a35.8,35.8,0,1,0-35.8,35.8A35.8,35.8,0,0,0,75.11,68.3Z" transform="translate(0.897 8.33)" fill="none" stroke="#000" stroke-width="1"/>
    </g>
    <g id="beacon-black.6892568f" transform="translate(879.346 1183.659)" clip-path="url(#clip-path)">
      <path id="Path_3421" data-name="Path 3421" d="M12.112,71.934,8.29,63.574l11.491-6.513,9.855,4.167L42.9,79.971l-2.889,2.77Z" transform="translate(2.125 14.625)" fill="#fff" stroke="#000" stroke-linejoin="bevel" stroke-width="1"/>
      <path id="Path_3422" data-name="Path 3422" d="M16.6,6.647l.872,63.333,10.184,4.253,28.9-33.869L51.039,11.192,43.658,7.612Z" transform="translate(4.255 1.704)" fill="#fff" stroke="#000" stroke-linejoin="bevel" stroke-width="1"/>
      <path id="Path_3423" data-name="Path 3423" d="M36.5,75.7,50.148,73.08l1,2.624L36.232,83.619l-2.985-4.67Z" transform="translate(8.521 18.731)" fill="#fff" stroke="#000" stroke-linejoin="bevel" stroke-width="1"/>
      <path id="Path_3424" data-name="Path 3424" d="M43.514,84.653h-9.6L9.454,74.091,5.887,69.675l6.42-.9,28.04,11.282Z" transform="translate(1.509 17.628)" fill="#fff" stroke="#000" stroke-linejoin="bevel" stroke-width="1"/>
      <path id="Path_3425" data-name="Path 3425" d="M3.685,56.813l5.653,6.961L13.1,71.783l-6.52,1.2Z" transform="translate(0.944 14.562)" fill="#fff" stroke="#000" stroke-linejoin="bevel" stroke-width="1"/>
      <path id="Path_3426" data-name="Path 3426" d="M.483,53.131,4.468,69.742l5.682,6.726,11.735-6.726L20.433,6.389Z" transform="translate(0.124 1.638)" fill="#fff" stroke="#000" stroke-linejoin="bevel" stroke-width="1"/>
      <path id="Path_3427" data-name="Path 3427" d="M32.562,1l13.6,4.132L43.61,9,16.1,8.091Z" transform="translate(4.128 0.256)" fill="#fff" stroke="#000" stroke-linejoin="bevel" stroke-width="1"/>
      <path id="Path_3428" data-name="Path 3428" d="M40.378,4.236l5.277,3.121-.119,5.151L38.063,7.985Z" transform="translate(9.756 1.086)" fill="#fff" stroke="#000" stroke-linejoin="bevel" stroke-width="1"/>
      <path id="Path_3429" data-name="Path 3429" d="M44.015,6.647,47.5,9.518l9.16,23.943V61.3l-7.4-21.043L44.013,10.706Z" transform="translate(11.281 1.704)" fill="#fff" stroke="#000" stroke-linejoin="bevel" stroke-width="1"/>
      <path id="Path_3430" data-name="Path 3430" d="M56.032,49.338V73.823l-8.418,8.054-1.13-2.856Z" transform="translate(11.914 12.646)" fill="#fff" stroke="#000" stroke-linejoin="bevel" stroke-width="1"/>
      <path id="Path_3431" data-name="Path 3431" d="M30.392,18.681a3.548,3.548,0,1,0-3.548-3.548A3.548,3.548,0,0,0,30.392,18.681Z" transform="translate(6.88 2.969)" fill="#121212" stroke="#000" stroke-width="1"/>
      <path id="Path_3432" data-name="Path 3432" d="M30.264,17.924A2.92,2.92,0,1,0,27.344,15,2.92,2.92,0,0,0,30.264,17.924Z" transform="translate(7.008 3.097)" fill="#fff" stroke="#000" stroke-linejoin="bevel" stroke-width="0.5"/>
    </g>
    <g id="iot-black.a710327c" transform="translate(979.594 1174.865)">
      <path id="Path_3433" data-name="Path 3433" d="M125.631,56H5.025A5.025,5.025,0,0,0,0,61.025V91.177A5.025,5.025,0,0,0,5.025,96.2H125.631a5.025,5.025,0,0,0,5.025-5.025V61.025A5.025,5.025,0,0,0,125.631,56Z" transform="translate(0 14.353)" fill="#121212" stroke="#000" stroke-width="1"/>
      <path id="Path_3434" data-name="Path 3434" d="M125.5,56.5H4.9A4.4,4.4,0,0,0,.5,60.9V91.048a4.4,4.4,0,0,0,4.4,4.4H125.5a4.4,4.4,0,0,0,4.4-4.4V60.9A4.4,4.4,0,0,0,125.5,56.5Z" transform="translate(0.128 14.481)" fill="#fff" stroke="#000" stroke-width="1"/>
      <path id="Path_3436" data-name="Path 3436" d="M89.922,83.345A9.422,9.422,0,1,0,80.5,73.922,9.422,9.422,0,0,0,89.922,83.345Z" transform="translate(20.633 16.532)" fill="#fff" stroke="#000" stroke-width="1"/>
      <path id="Path_3438" data-name="Path 3438" d="M89.153,78.807A5.653,5.653,0,1,0,83.5,73.153,5.653,5.653,0,0,0,89.153,78.807Z" transform="translate(21.402 17.301)" fill="#fff" stroke="#000" stroke-width="1"/>
      <path id="Path_3439" data-name="Path 3439" d="M16,0V70.353" transform="translate(4.101)" fill="none" stroke="#000" stroke-width="1"/>
    </g>
  </g>
</svg>
