<svg xmlns="http://www.w3.org/2000/svg" width="63.516" height="56.711" viewBox="0 0 63.516 56.711">
  <path id="swift.1a52bb2c" d="M39.133,0C67.052,18.981,58.022,39.912,58.022,39.912s7.939,8.961,4.73,16.8c0,0-3.275-5.489-8.766-5.489-5.293,0-8.4,5.489-19.054,5.489C11.214,56.711,0,36.9,0,36.9,21.369,50.957,35.958,41,35.958,41,26.331,35.415,5.855,8.7,5.855,8.7c17.83,15.178,25.537,19.179,25.537,19.179-4.6-3.8-17.5-22.387-17.5-22.387,10.321,10.449,30.83,25.032,30.83,25.032C50.546,14.384,39.133,0,39.133,0Z"/>
</svg>
