<svg id="python.1ca1f4ac" xmlns="http://www.w3.org/2000/svg" width="58" height="58" viewBox="0 0 58 58">
  <path id="Path_3451" data-name="Path 3451" d="M37.98,15.327h0v-.01Z" transform="translate(6.077 2.451)"/>
  <path id="Path_3452" data-name="Path 3452" d="M47.892,40.848c4.026,0,5.515-2.808,6.914-7.018,1.45-4.335,1.387-8.506,0-14.06-1-4-2.886-7.018-6.914-7.018H42.7v6.141a8.881,8.881,0,0,1-8.647,8.777H20.228a7.054,7.054,0,0,0-6.914,7.03V47.88c0,3.753,3.263,5.955,6.914,7.03a23.283,23.283,0,0,0,13.826,0c3.482-1.01,6.914-3.045,6.914-7.03V42.61H27.152V40.85h20.74Zm-12.97,5.271a2.636,2.636,0,1,1-2.6,2.629A2.619,2.619,0,0,1,34.921,46.119Z" transform="translate(2.13 2.04)"/>
  <path id="Path_3453" data-name="Path 3453" d="M8.322,42.891h4.751V36.571a8.792,8.792,0,0,1,8.647-8.6H35.546a6.971,6.971,0,0,0,6.914-7.03V7.753C42.46,4,39.3,1.187,35.546.557A42.629,42.629,0,0,0,21.72.571l0,0C15.869,1.6,14.811,3.763,14.811,7.763v5.271h13.84V14.8H9.618A8.64,8.64,0,0,0,.971,21.813a25.94,25.94,0,0,0,0,14.06C1.952,39.964,4.3,42.891,8.322,42.891ZM20.855,9.513a2.636,2.636,0,1,1,2.6-2.629A2.619,2.619,0,0,1,20.855,9.513Z" transform="translate(0 0)"/>
</svg>
