<svg xmlns="http://www.w3.org/2000/svg" width="58.929" height="58.929" viewBox="0 0 58.929 58.929">
  <path id="typescript.254c003c" d="M0,0V58.929H58.929V0ZM34.918,30.941H27.985v21.44H22.4V30.941h-6.79v-4.75H34.918Zm1.087,20.216V45.424a12.858,12.858,0,0,0,6.888,2.36c3.758,0,3.611-2.455,3.611-2.793,0-3.565-10.643-3.565-10.643-11.462,0-10.741,15.508-6.5,15.508-6.5l-.193,5.1A11.316,11.316,0,0,0,45.637,30.4c-2.937,0-4,1.4-4,2.891,0,3.853,10.741,3.467,10.741,11.223C52.381,56.454,36.005,51.157,36.005,51.157Z"/>
</svg>
