<svg xmlns="http://www.w3.org/2000/svg" width="55" height="55" viewBox="0 0 55 55">
  <path id="metror-js.899c6ebd" d="M0,0,47.1,50.884A2.155,2.155,0,0,0,50.217,48ZM14.914,4.81,50.783,44.247A2.155,2.155,0,0,0,53.9,41.362ZM4.436,15.1,40.305,54.54a2.155,2.155,0,0,0,3.115-2.886ZM27.522,8.946,52.582,36.5a1.506,1.506,0,0,0,2.176-2.016ZM7.888,27.029l25.06,27.553a1.506,1.506,0,0,0,2.176-2.016ZM40.4,14.909,51.758,27.435a.78.78,0,0,0,.979-.063.68.68,0,0,0,.1-.882ZM14.159,39.726,25.517,52.252a.78.78,0,0,0,.979-.063.68.68,0,0,0,.1-.882Z"/>
</svg>
