<svg id="express.f4e75ae4" xmlns="http://www.w3.org/2000/svg" width="65.333" height="65.333" viewBox="0 0 65.333 65.333">
  <path id="Path_3445" data-name="Path 3445" d="M30.954.051A31.028,31.028,0,0,0,13.569,6.113,33.863,33.863,0,0,0,3.032,18.694,30.489,30.489,0,0,0,0,32.684,30.353,30.353,0,0,0,3.064,46.727a34.27,34.27,0,0,0,9.6,11.87A31.066,31.066,0,0,0,29.29,65.222a48.8,48.8,0,0,0,7.145-.042A30.858,30.858,0,0,0,52,59.074,32.973,32.973,0,0,0,64.612,39.838,36.059,36.059,0,0,0,64.654,25.7,32.921,32.921,0,0,0,51.8,6.166,31.061,31.061,0,0,0,35.078.093C34.41.061,33.6.019,33.287.008S31.919.008,30.954.051ZM23,20.283A9.542,9.542,0,0,1,27.668,23.1c2.088,2.215,3.254,5.342,3.466,9.284l.064,1.251H12.9l.064,1.187a12.1,12.1,0,0,0,.244,1.834,6.864,6.864,0,0,0,5.035,4.992,11.926,11.926,0,0,0,4.336.011c2.035-.551,3.784-2.152,4.092-3.763l.064-.339h2a11.222,11.222,0,0,1,2,.085,14.312,14.312,0,0,1-.668,2.12,9.495,9.495,0,0,1-6.286,5.2A12.441,12.441,0,0,1,20.3,45.4c-5.65,0-9.636-3.01-11.025-8.32a16.711,16.711,0,0,1-.551-5.193,12.106,12.106,0,0,1,1.431-5.829,11.031,11.031,0,0,1,7.9-5.946A16.212,16.212,0,0,1,23,20.283Zm18.117,4.081c1.654,2.416,3.053,4.4,3.1,4.4s1.474-1.961,3.17-4.356,3.159-4.377,3.223-4.4,1.209-.032,2.534-.021l2.406.032L51.2,25.837c-2.385,3.211-4.346,5.84-4.346,5.861s2.163,3.052,4.8,6.73S56.5,45.2,56.545,45.264c.064.106-.488.138-2.608.138l-2.682-.011-3.488-5.183c-1.919-2.862-3.519-5.193-3.551-5.193s-1.654,2.332-3.572,5.193L37.156,45.4H34.643c-1.389,0-2.523-.021-2.523-.042s2.12-3.021,4.717-6.656,4.7-6.656,4.675-6.72-1.982-2.756-4.346-5.978-4.3-5.893-4.3-5.946a17.068,17.068,0,0,1,2.629-.1H38.11Z" transform="translate(0 0)"/>
  <path id="Path_3446" data-name="Path 3446" d="M16.152,18.016a7.477,7.477,0,0,0-2.438.7,6.548,6.548,0,0,0-2.958,2.957A9.164,9.164,0,0,0,9.9,24.545v.3H23.785v-.35a8.046,8.046,0,0,0-.848-2.819,6.756,6.756,0,0,0-5.194-3.6A4.623,4.623,0,0,0,16.152,18.016Z" transform="translate(3.035 5.51)"/>
</svg>
