<svg id="golang.57bdd95b" xmlns="http://www.w3.org/2000/svg" width="80.1" height="30" viewBox="0 0 80.1 30">
  <path id="Path_3449" data-name="Path 3449" d="M6.045,9.084c-.156,0-.2-.078-.117-.2l.819-1.056a.558.558,0,0,1,.429-.2H21.1c.156,0,.195.117.117.235l-.663,1.017a.594.594,0,0,1-.39.235Zm-5.889,3.6c-.156,0-.195-.078-.117-.2l.819-1.056a.558.558,0,0,1,.429-.2H19.071a.18.18,0,0,1,.195.235l-.312.938a.341.341,0,0,1-.351.235Zm9.438,3.6c-.156,0-.195-.117-.117-.235l.546-.977a.517.517,0,0,1,.39-.235h7.8c.156,0,.234.117.234.274l-.078.938a.293.293,0,0,1-.273.274Zm40.481-7.9c-2.457.626-4.134,1.095-6.552,1.72-.585.156-.624.2-1.131-.391a5.223,5.223,0,0,0-1.833-1.486A6.767,6.767,0,0,0,33.5,8.81a8.32,8.32,0,0,0-3.978,7.428,6.124,6.124,0,0,0,5.265,6.138,7.189,7.189,0,0,0,6.63-2.58c.351-.43.663-.9,1.053-1.447H34.943c-.819,0-1.014-.508-.741-1.173.507-1.212,1.443-3.245,1.989-4.261a1.053,1.053,0,0,1,.975-.626h14.2c-.078,1.056-.078,2.111-.234,3.167a16.7,16.7,0,0,1-3.2,7.663,16.239,16.239,0,0,1-11.115,6.646,13.788,13.788,0,0,1-10.491-2.58,12.287,12.287,0,0,1-4.953-8.679A15.371,15.371,0,0,1,24.687,7.051,17.3,17.3,0,0,1,35.606.287,13.412,13.412,0,0,1,45.941,2.2a12.249,12.249,0,0,1,4.524,5.513C50.7,8.067,50.543,8.263,50.075,8.38Z"/>
  <path id="Path_3450" data-name="Path 3450" d="M62.984,30a14.608,14.608,0,0,1-9.516-3.44,12.269,12.269,0,0,1-4.212-7.546A14.951,14.951,0,0,1,52.415,7.207,16.342,16.342,0,0,1,63.335.678c3.978-.7,7.721-.313,11.114,1.994a12.172,12.172,0,0,1,5.5,8.718,15.113,15.113,0,0,1-4.485,13.253,17.855,17.855,0,0,1-9.36,5C65.051,29.844,64,29.883,62.984,30Zm9.282-15.795a11.3,11.3,0,0,0-.117-1.29,6.425,6.425,0,0,0-7.956-5.2,8.529,8.529,0,0,0-6.825,6.8,6.443,6.443,0,0,0,3.588,7.389,7.134,7.134,0,0,0,6.357-.235A8.556,8.556,0,0,0,72.265,14.205Z"/>
</svg>
