<svg id="android.2b37a945" xmlns="http://www.w3.org/2000/svg" width="52.923" height="58.804" viewBox="0 0 52.923 58.804">
  <path id="Path_3324" data-name="Path 3324" d="M15.958,50.37a3.685,3.685,0,0,1,3.7,3.67V69.785a3.7,3.7,0,0,1-7.4,0V54.041a3.685,3.685,0,0,1,3.7-3.67Z" transform="translate(2.158 -14.652)"/>
  <path id="Path_3325" data-name="Path 3325" d="M8.224,34.273c-.012.139-.023.28-.023.422V58.551a4.6,4.6,0,0,0,4.588,4.632H37.245a4.6,4.6,0,0,0,4.589-4.632V34.7c0-.142-.005-.283-.017-.422Z" transform="translate(1.444 -17.487)"/>
  <path id="Path_3326" data-name="Path 3326" d="M9.271,20.052a.391.391,0,0,1,.532.141l3.9,6.706a.385.385,0,0,1-.143.528.391.391,0,0,1-.532-.141l-3.9-6.706A.385.385,0,0,1,9.271,20.052Zm31.187,0a.385.385,0,0,1,.143.528l-3.9,6.706a.391.391,0,0,1-.532.141.385.385,0,0,1-.143-.528l3.9-6.706A.391.391,0,0,1,40.458,20.052Z" transform="translate(1.598 -20)"/>
  <path id="Path_3327" data-name="Path 3327" d="M38.508,59.225a3.685,3.685,0,0,0-3.7-3.67h0a3.685,3.685,0,0,0-3.7,3.67V74.97a3.7,3.7,0,0,0,7.4,0ZM7.4,42.418a3.7,3.7,0,0,0-7.4,0V58.163a3.7,3.7,0,0,0,7.4,0Zm45.523,0a3.7,3.7,0,0,0-7.4,0V58.163a3.7,3.7,0,0,0,7.4,0ZM24.6,20.931c-8.276.792-14.723,6.8-14.826,14.127h33.37c-.1-7.327-6.55-13.335-14.826-14.127Zm-5.02,9.42a1.884,1.884,0,0,0,1.909-1.86v-.01a1.915,1.915,0,0,0-3.828.01v.01A1.886,1.886,0,0,0,19.582,30.351Zm14.289,0a1.884,1.884,0,0,0,1.909-1.86v-.01a1.915,1.915,0,0,0-3.828.01v.01A1.886,1.886,0,0,0,33.871,30.351Z" transform="translate(0 -19.836)"/>
</svg>
