<svg id="ios.f3f9dff2" xmlns="http://www.w3.org/2000/svg" width="50.84" height="62" viewBox="0 0 50.84 62">
  <path id="Path_3322" data-name="Path 3322" d="M32.524,25h.444A13.4,13.4,0,0,1,29.6,35.084c-2,2.368-4.743,4.665-9.176,4.316a13,13,0,0,1,3.423-9.771A14.776,14.776,0,0,1,32.524,25Z" transform="translate(4.895 -25)"/>
  <path id="Path_3323" data-name="Path 3323" d="M50.84,67.558v.123a36.382,36.382,0,0,1-5.192,10.029c-1.98,2.73-4.406,6.4-8.738,6.4-3.743,0-6.23-2.412-10.066-2.478-4.058-.066-6.29,2.017-10,2.541H15.578c-2.725-.4-4.923-2.557-6.525-4.506A39.517,39.517,0,0,1,0,56.964v-2.8c.288-6.81,3.59-12.348,7.979-15.031a13.454,13.454,0,0,1,9.047-2.1,22.713,22.713,0,0,1,4.433,1.273c1.29.5,2.9,1.377,4.431,1.331A10.617,10.617,0,0,0,29,38.689c3.056-1.106,6.052-2.373,10-1.778,4.746.719,8.114,2.832,10.195,6.091-4.014,2.56-7.188,6.418-6.646,13.006C43.03,61.993,46.5,65.495,50.84,67.558Z" transform="translate(0 -22.178)"/>
</svg>
