<svg id="ionic.45f15466" xmlns="http://www.w3.org/2000/svg" width="65.228" height="65.228" viewBox="0 0 65.228 65.228">
  <path id="Path_3440" data-name="Path 3440" d="M59.191,13.7a5.459,5.459,0,0,0-7.668-7.667A32.6,32.6,0,1,0,59.191,13.7Zm-5.284,40.2A30.172,30.172,0,1,1,49.956,7.965a5.471,5.471,0,0,0,4.939,7.793,5.593,5.593,0,0,0,2.336-.517,30.375,30.375,0,0,1,3.136,5.629,30.106,30.106,0,0,1-6.46,33.037Z"/>
  <path id="Path_3441" data-name="Path 3441" d="M28.517,43.584A15.068,15.068,0,1,0,13.448,28.516,15.068,15.068,0,0,0,28.517,43.584Z" transform="translate(4.096 4.096)"/>
</svg>
