<svg xmlns="http://www.w3.org/2000/svg" xmlns:xlink="http://www.w3.org/1999/xlink" width="72" height="44" viewBox="0 0 72 44">
  <defs>
    <clipPath id="clip-path">
      <rect id="Rectangle_564" data-name="Rectangle 564" width="72" height="44" transform="translate(-0.048 13.333)"/>
    </clipPath>
  </defs>
  <g id="php.a0d3a7a4" transform="translate(0.048 -13.333)" clip-path="url(#clip-path)">
    <path id="Path_3454" data-name="Path 3454" d="M35.968,11.672H35.62a65.416,65.416,0,0,0-14.057,1.52l.432-.081a48.328,48.328,0,0,0-11.72,4.025l.282-.126a24.347,24.347,0,0,0-7.7,5.785l-.021.024A10.79,10.79,0,0,0,0,29.905v.012a10.81,10.81,0,0,0,2.835,7.095L2.829,37a24.3,24.3,0,0,0,7.58,5.746l.144.063a47.056,47.056,0,0,0,11.12,3.843l.318.057A63.582,63.582,0,0,0,35.617,48.15h.7a65.425,65.425,0,0,0,14.057-1.52l-.432.081a48.326,48.326,0,0,0,11.719-4.025l-.282.126a24.347,24.347,0,0,0,7.7-5.785L69.1,37a10.79,10.79,0,0,0,2.833-7.086v-.012A10.814,10.814,0,0,0,69.1,22.8l.006.009a24.293,24.293,0,0,0-7.58-5.746L61.379,17a47.056,47.056,0,0,0-11.12-3.843l-.318-.057A63.581,63.581,0,0,0,36.316,11.66h-.351ZM26.616,33.445a5.78,5.78,0,0,1-1.325.9l-.033.015a8.742,8.742,0,0,1-1.445.536l-.063.015a5.164,5.164,0,0,1-1.735.3h-5.98l-.959,5.884H10.739l3.837-20.007h8.312l.186,0a9.014,9.014,0,0,1,3.075.536l-.063-.021a5.828,5.828,0,0,1,2.242,1.466l0,0a5.406,5.406,0,0,1,1.061,2.365l.006.033a8.789,8.789,0,0,1-.045,3.174l.009-.057a8.433,8.433,0,0,1-.426,1.454l.021-.057q-.258.662-.552,1.25-.366.587-.809,1.178a6.48,6.48,0,0,1-.95,1.028l-.009.006Zm12.5,1.765,1.693-8.459a4.929,4.929,0,0,0,.114-1.064l-.006-.234v.012a1.276,1.276,0,0,0-.333-.848,2.011,2.011,0,0,0-.722-.4l-.015,0a4.16,4.16,0,0,0-1.253-.186l-.153,0H35.078L32.872,35.21H28.606l3.837-19.423h4.265l-1.028,5.3h3.837l.219,0a12.015,12.015,0,0,1,2.88.351l-.081-.018a4.161,4.161,0,0,1,1.921,1l0,0a2.517,2.517,0,0,1,.917,1.493l0,.015a5.831,5.831,0,0,1-.12,2.359l.009-.042L43.5,35.2Zm23.685-6.546a12.5,12.5,0,0,1-.4,1.418l.027-.093a5.88,5.88,0,0,1-.6,1.274l.015-.024a5.433,5.433,0,0,1-.743,1.223l.009-.012a7.6,7.6,0,0,1-.95.986l-.009.009a5.78,5.78,0,0,1-1.325.9l-.033.015a8.749,8.749,0,0,1-1.445.536l-.063.015a5.164,5.164,0,0,1-1.735.3h-5.98l-1.028,5.872H44.283l3.836-20.007h8.24l.219,0a9.2,9.2,0,0,1,3.12.54l-.066-.021a5.179,5.179,0,0,1,2.152,1.463l.006.006a5.028,5.028,0,0,1,1.133,2.395l.006.03a8.279,8.279,0,0,1-.12,3.225l.012-.057Zm-8.093-4.637H51.782l-1.538,8.24h2.722a12.383,12.383,0,0,0,2.2-.2l-.075.012a4.415,4.415,0,0,0,1.637-.635l-.018.009a4.968,4.968,0,0,0,1.016-1.262l.012-.024a6.143,6.143,0,0,0,.656-1.912l.006-.036a5.628,5.628,0,0,0,.108-1.945l0,.027a2.433,2.433,0,0,0-.483-1.256l0,.006a3.345,3.345,0,0,0-1.226-.728l-.024-.006a5.946,5.946,0,0,0-2.065-.288h.009Zm-33.54,0H18.242L16.7,32.267h2.728a12.38,12.38,0,0,0,2.2-.2l-.075.012a4.415,4.415,0,0,0,1.637-.635l-.018.009a4.968,4.968,0,0,0,1.016-1.262l.012-.024a6.143,6.143,0,0,0,.656-1.912l.006-.036a5.627,5.627,0,0,0,.108-1.945l0,.027a2.435,2.435,0,0,0-.483-1.256l0,.006a3.345,3.345,0,0,0-1.226-.728l-.024-.006a5.946,5.946,0,0,0-2.065-.288h.009Z" transform="translate(-0.016 4.481)"/>
  </g>
</svg>
