<svg id="react-native.5da1c941" xmlns="http://www.w3.org/2000/svg" width="66" height="58.929" viewBox="0 0 66 58.929">
  <path id="Path_3333" data-name="Path 3333" d="M0,54.471c0-4.384,5.475-8.538,13.87-11.114-1.937-8.578-1.076-15.4,2.718-17.588a5.886,5.886,0,0,1,3.013-.755v3.008a3.108,3.108,0,0,0-1.534.351c-1.83,1.052-2.623,5.058-2,10.21.148,1.268.39,2.6.686,3.965a65.032,65.032,0,0,1,8.543-1.47,65.752,65.752,0,0,1,5.6-6.744c-4.386-4.087-8.5-6.326-11.3-6.326V25c3.7,0,8.543,2.644,13.439,7.23,4.9-4.559,9.74-7.176,13.439-7.176v3.008c-2.785,0-6.915,2.226-11.3,6.285a63.668,63.668,0,0,1,5.556,6.73,62.677,62.677,0,0,1,8.556,1.484c.309-1.349.538-2.657.7-3.911.632-5.152-.148-9.158-1.964-10.224a2.988,2.988,0,0,0-1.547-.351V25.068a5.986,5.986,0,0,1,3.04.755c3.78,2.185,4.628,9,2.677,17.548C60.552,45.96,66,50.1,66,54.471s-5.475,8.538-13.87,11.114c1.937,8.578,1.076,15.4-2.718,17.588a5.9,5.9,0,0,1-3.027.755c-3.7,0-8.543-2.644-13.439-7.23-4.9,4.559-9.74,7.176-13.439,7.176a5.984,5.984,0,0,1-3.04-.755c-3.78-2.185-4.628-9-2.677-17.548C5.448,63,0,58.841,0,54.471Zm17.516-9c.5,1.74,1.117,3.534,1.816,5.328.552-1.079,1.13-2.158,1.762-3.237s1.278-2.131,1.937-3.156C21.121,44.692,19.278,45.043,17.516,45.475Zm6.161,14.365c1.049,1.821,2.126,3.547,3.242,5.152,2,.175,4.036.27,6.081.27s4.063-.095,6.054-.256q1.675-2.408,3.256-5.125c1.022-1.767,1.951-3.561,2.8-5.368-.834-1.807-1.776-3.615-2.785-5.382-1.049-1.821-2.126-3.547-3.242-5.152-2-.175-4.036-.27-6.081-.27s-4.063.094-6.054.256q-1.675,2.407-3.256,5.125-1.534,2.65-2.8,5.368C21.74,56.265,22.668,58.072,23.677,59.839Zm-4.345-1.753c-.726,1.807-1.345,3.615-1.856,5.368,1.762.432,3.619.8,5.543,1.079-.659-1.039-1.318-2.1-1.937-3.2S19.883,59.165,19.332,58.086ZM32.973,72.477a55.551,55.551,0,0,0,3.74-4.316c-1.211.054-2.449.094-3.7.094s-2.516-.027-3.74-.094A52.6,52.6,0,0,0,32.973,72.477Zm10.009-7.944c1.91-.283,3.753-.634,5.516-1.066-.5-1.74-1.117-3.534-1.816-5.328-.551,1.079-1.13,2.158-1.762,3.237S43.641,63.508,42.982,64.533ZM33.04,36.465a55.547,55.547,0,0,0-3.74,4.316c1.211-.054,2.448-.094,3.7-.094s2.516.027,3.74.094A52.619,52.619,0,0,0,33.04,36.465ZM43,44.409c.659,1.039,1.318,2.1,1.937,3.2s1.2,2.158,1.749,3.237c.727-1.807,1.345-3.615,1.856-5.368C46.776,45.056,44.919,44.692,43,44.409ZM55.17,61.3c4.762-2.037,7.843-4.707,7.843-6.825s-3.081-4.8-7.843-6.825c-1.157-.5-2.421-.944-3.726-1.362A64.87,64.87,0,0,1,48.417,54.5,63.96,63.96,0,0,1,51.4,62.672C52.735,62.254,54,61.795,55.17,61.3ZM47.933,80.57c1.83-1.052,2.623-5.058,2-10.21-.148-1.268-.39-2.6-.686-3.966a65.033,65.033,0,0,1-8.543,1.47,65.739,65.739,0,0,1-5.6,6.744c4.386,4.087,8.5,6.326,11.3,6.326A3.2,3.2,0,0,0,47.933,80.57ZM16.022,70.292c-.632,5.152.148,9.158,1.964,10.224a2.988,2.988,0,0,0,1.547.351c2.785,0,6.915-2.226,11.3-6.285a63.668,63.668,0,0,1-5.556-6.73,62.694,62.694,0,0,1-8.556-1.484A37.835,37.835,0,0,0,16.022,70.292Zm-5.179-9c1.157.5,2.422.944,3.726,1.362A64.877,64.877,0,0,1,17.6,54.444,63.974,63.974,0,0,1,14.61,46.27c-1.332.418-2.6.877-3.78,1.376-4.762,2.037-7.843,4.707-7.843,6.825S6.081,59.273,10.843,61.3Z" transform="translate(0 -25)" fill="#010c21"/>
  <path id="Path_3334" data-name="Path 3334" d="M28.945,57.1a6.164,6.164,0,1,1,6.148-6.164A6.156,6.156,0,0,1,28.945,57.1Z" transform="translate(4.071 -21.469)" fill="#010c21"/>
</svg>
