<svg id="node-js.69438df1" xmlns="http://www.w3.org/2000/svg" width="50" height="56.333" viewBox="0 0 50 56.333">
  <path id="Path_3447" data-name="Path 3447" d="M22.744.6a4.532,4.532,0,0,1,4.511,0q10.3,5.951,20.6,11.9A4.354,4.354,0,0,1,50,16.234V40.1a4.4,4.4,0,0,1-2.3,3.816Q37.431,49.837,27.168,55.76a4.405,4.405,0,0,1-4.56-.13q-3.078-1.824-6.16-3.642a3.63,3.63,0,0,1-1.188-.875c.262-.361.73-.406,1.11-.563a14.236,14.236,0,0,0,2.43-1.159.557.557,0,0,1,.633.039c1.755,1.029,3.494,2.087,5.255,3.106.376.222.756-.073,1.077-.256q10.075-5.822,20.157-11.63a.685.685,0,0,0,.366-.671q.007-11.811,0-23.623a.74.74,0,0,0-.43-.736Q35.629,9.729,25.4,3.831a.7.7,0,0,0-.8,0Q14.369,9.724,4.142,15.623a.732.732,0,0,0-.433.733q0,11.811,0,23.624a.68.68,0,0,0,.084.391.659.659,0,0,0,.287.272q2.73,1.583,5.463,3.154a4.142,4.142,0,0,0,3.416.467,2.648,2.648,0,0,0,1.678-2.489c.009-7.828,0-15.657.007-23.484a.582.582,0,0,1,.628-.6c.874-.006,1.75-.012,2.625,0a.616.616,0,0,1,.571.716c0,7.878.009,15.755-.006,23.633,0,2.1-.841,4.384-2.741,5.411a8.276,8.276,0,0,1-7.544-.212c-2-1.021-3.911-2.226-5.877-3.321A4.385,4.385,0,0,1,0,40.1V16.234a4.359,4.359,0,0,1,2.216-3.782Q12.481,6.529,22.744.6Z" transform="translate(0 0)"/>
  <path id="Path_3448" data-name="Path 3448" d="M28.715,15.217c2.985-.2,6.18-.116,8.866,1.387a6.889,6.889,0,0,1,3.269,5.932.629.629,0,0,1-.681.472c-.866,0-1.732.012-2.6-.006-.367.014-.581-.332-.627-.664a4.044,4.044,0,0,0-1.892-2.795,10.991,10.991,0,0,0-5.191-.759,6.923,6.923,0,0,0-3.716.946,2.44,2.44,0,0,0-.783,2.689c.278.676,1.041.894,1.666,1.1,3.6.962,7.409.866,10.937,2.132a5.19,5.19,0,0,1,3.39,3.083,6.7,6.7,0,0,1-1.091,6.283,8.557,8.557,0,0,1-4.623,2.547,21.734,21.734,0,0,1-6.979.3A10.855,10.855,0,0,1,22.523,35.5a6.661,6.661,0,0,1-2.075-5.2.585.585,0,0,1,.637-.525c.872-.007,1.744-.01,2.616,0a.618.618,0,0,1,.624.618A4.08,4.08,0,0,0,25.8,33.247c1.772,1.169,4,1.089,6.026,1.122,1.681-.076,3.569-.1,4.941-1.236a2.832,2.832,0,0,0,.743-2.665,2.366,2.366,0,0,0-1.71-1.394c-3.551-1.148-7.405-.732-10.922-2.03a5.354,5.354,0,0,1-3.357-2.991,6.229,6.229,0,0,1,1.2-6.373,9.545,9.545,0,0,1,6-2.463Z" transform="translate(0 1.918)"/>
</svg>
