<svg xmlns="http://www.w3.org/2000/svg" width="54" height="54" viewBox="0 0 54 54">
  <path id="laravel.198436c0" d="M53.97,12.216a.83.83,0,0,1,.03.221V24.028a.826.826,0,0,1-.117.424.858.858,0,0,1-.32.31l-10.015,5.6v11.1a.843.843,0,0,1-.435.733L22.207,53.887a.957.957,0,0,1-.152.061c-.02.006-.038.018-.059.023a.9.9,0,0,1-.446,0c-.024-.006-.046-.019-.068-.027a.9.9,0,0,1-.144-.057L.437,42.2a.859.859,0,0,1-.32-.31A.828.828,0,0,1,0,41.464V6.691a.841.841,0,0,1,.03-.222c.007-.024.022-.046.03-.071a.819.819,0,0,1,.055-.131.8.8,0,0,1,.06-.075.863.863,0,0,1,.077-.1.847.847,0,0,1,.086-.063.707.707,0,0,1,.1-.073h0L10.887.113a.895.895,0,0,1,.87,0L22.208,5.958h0a1.052,1.052,0,0,1,.1.072,1.012,1.012,0,0,1,.085.063.979.979,0,0,1,.078.1.771.771,0,0,1,.059.075.874.874,0,0,1,.056.131c.009.024.024.046.03.072a.835.835,0,0,1,.03.221V28.41l8.709-4.871v-11.1a.832.832,0,0,1,.03-.22c.008-.025.022-.048.03-.072a.932.932,0,0,1,.057-.131.945.945,0,0,1,.059-.075.865.865,0,0,1,.078-.1.842.842,0,0,1,.085-.063.875.875,0,0,1,.1-.073h0L42.243,5.859a.894.894,0,0,1,.87,0L53.564,11.7a.955.955,0,0,1,.1.072c.027.021.059.04.084.063a1,1,0,0,1,.078.1.628.628,0,0,1,.059.075.821.821,0,0,1,.056.131A.6.6,0,0,1,53.97,12.216ZM52.258,23.539V13.9L48.6,15.945l-5.053,2.826V28.41l8.711-4.871ZM41.807,40.975V31.33l-4.97,2.757L22.644,41.955v9.736ZM1.742,8.154V40.975L20.9,51.69V41.956l-10.01-5.5,0,0,0,0a.935.935,0,0,1-.094-.07.954.954,0,0,1-.083-.061l0,0a.813.813,0,0,1-.072-.089.9.9,0,0,1-.065-.082v0a.669.669,0,0,1-.046-.106.618.618,0,0,1-.041-.1.8.8,0,0,1-.017-.125.714.714,0,0,1-.013-.1V13.025L5.4,10.2Zm9.581-6.332L2.616,6.691l8.706,4.869,8.707-4.87L11.321,1.822Zm4.528,30.387L20.9,29.384V8.154L17.246,10.2l-5.053,2.826v21.23ZM42.678,7.568l-8.707,4.869,8.707,4.869,8.706-4.87Zm-.871,11.2-5.053-2.826L33.1,13.9v9.639l5.052,2.825,3.658,2.046ZM21.772,40.492,34.543,33.41l6.384-3.539-8.7-4.866-10.017,5.6-9.13,5.106Z"/>
</svg>
