<svg xmlns="http://www.w3.org/2000/svg" width="62.805" height="76.134" viewBox="0 0 62.805 76.134">
  <g id="interview" transform="translate(0.089)">
    <path id="Path_3488" data-name="Path 3488" d="M64.491,0c.95.149,1.9.261,2.849.447a17.366,17.366,0,0,1,9.237,4.73,11.634,11.634,0,0,1,2.756,4.451,1.119,1.119,0,0,1-.577,1.509,1.092,1.092,0,0,1-1.49-.708c-1.453-3.781-4.339-5.96-8.027-7.17a17.919,17.919,0,0,0-15.7,1.695C50.691,6.723,48.754,9.219,48.6,12.72s1.658,6.015,4.377,7.971A17.1,17.1,0,0,0,59.2,23.41a3.239,3.239,0,0,1,1.378.8,20.6,20.6,0,0,0,6.295,3.911c-.074-.67-.149-1.266-.186-1.862a2.9,2.9,0,0,1,2.123-3.315,14.973,14.973,0,0,0,6.276-3.818,9.451,9.451,0,0,0,2.123-3.445c.056-.168.112-.335.168-.484.317-.782.819-1.08,1.471-.875a1.109,1.109,0,0,1,.615,1.6,17.636,17.636,0,0,1-1.62,3.315,15.192,15.192,0,0,1-7.6,5.568c-1.453.54-1.527.652-1.266,2.16.074.466.223.913.335,1.378A1.733,1.733,0,0,1,67,30.543a21.113,21.113,0,0,1-7.263-4.1,3.928,3.928,0,0,0-.8-.67.9.9,0,0,0-.819.019,17.939,17.939,0,0,1-8.828,4.768,3.469,3.469,0,0,0-1.248.875,22.3,22.3,0,0,1-7.04,4.041,1.867,1.867,0,0,1-2.086-.261,2.021,2.021,0,0,1-.428-2.142c.13-.577.261-1.155.354-1.751a1.057,1.057,0,0,0-.819-1.341,16.337,16.337,0,0,1-5.941-3.278c-3.166-2.831-4.768-6.295-4.041-10.6a10.78,10.78,0,0,1,3.613-6.332C36.592,5.4,42.4,4.377,48.716,5.4a1.266,1.266,0,0,0,.968-.261A17.816,17.816,0,0,1,60.617.149c.242-.037.484-.093.708-.149ZM47.822,7.449c-1.043-.074-2.03-.168-3.017-.186a16.647,16.647,0,0,0-11.211,3.781,9,9,0,0,0-3.427,6.276c-.279,3.464,1.341,6.109,4,8.064a25.652,25.652,0,0,0,4.693,2.477c1.825.819,2.533,1.955,2.216,3.93-.056.41-.13.819-.223,1.322A20.866,20.866,0,0,0,47.189,29.2a3.783,3.783,0,0,1,1.509-.838,17.122,17.122,0,0,0,6.313-2.831c.3-.223.577-.484.913-.782a16.076,16.076,0,0,1-6.779-4.637,10.436,10.436,0,0,1-2.458-9.647C46.947,9.479,47.413,8.53,47.822,7.449Z" transform="translate(-22.753 0)"/>
    <path id="Path_3489" data-name="Path 3489" d="M196.173,323.668H185.539a3.473,3.473,0,0,1-3.781-3.464c-.093-3.483-.056-6.984.019-10.485a5.748,5.748,0,0,1,5.941-5.513c5.643-.019,11.3-.037,16.948,0a5.841,5.841,0,0,1,5.978,6.127c.019,3.129,0,6.239,0,9.368a3.613,3.613,0,0,1-3.911,3.948C203.213,323.668,199.693,323.668,196.173,323.668Zm8.157-2.235h2.291c1.322,0,1.788-.466,1.788-1.788v-9.07c0-2.7-1.434-4.153-4.116-4.153h-16.2c-2.7,0-4.134,1.434-4.153,4.116v9a5.018,5.018,0,0,0,.056.745,1.2,1.2,0,0,0,1.117,1.117c.95.074,1.918.019,2.924.019v-8.455a1.14,1.14,0,0,1,1.136-1.285c.633.019,1.043.5,1.08,1.266v8.474h11.826v-8.25c.019-.95.41-1.471,1.1-1.471.689-.019,1.117.521,1.136,1.453.019,2.049,0,4.116,0,6.164C204.331,319.98,204.331,320.669,204.331,321.433Z" transform="translate(-147.936 -247.534)" fill="#f04e3f"/>
    <path id="Path_3490" data-name="Path 3490" d="M20.34,321.242v-7.8c0-.279-.019-.54,0-.819a1.156,1.156,0,0,1,1.136-1.155,1.11,1.11,0,0,1,1.08,1.192c.019,1.751,0,3.52,0,5.271v3.241c1.043,0,2.049.056,3.036-.019a1.1,1.1,0,0,0,.987-1.062,5.858,5.858,0,0,0,.056-.819v-8.921c0-2.7-1.434-4.134-4.134-4.134H6.3c-2.7,0-4.134,1.434-4.134,4.116v8.921c0,1.564.41,1.956,1.993,1.956H6.241v-8.064c0-.317-.056-.726.112-.931.242-.317.67-.726.987-.708.372.019.764.428,1.043.745.149.186.093.577.093.875V321.2H10.99c.242,0,.5-.019.745,0a1.114,1.114,0,0,1,1.155,1.1,1.08,1.08,0,0,1-1.136,1.117c-2.831.019-5.643.056-8.474-.019a3.438,3.438,0,0,1-3.315-3.39c-.056-3.464-.093-6.947.019-10.411a5.742,5.742,0,0,1,6-5.624q8.437-.056,16.873,0a5.819,5.819,0,0,1,6.015,6.09c.056,3.166.037,6.351,0,9.517a3.593,3.593,0,0,1-3.948,3.836H17.192c-.8-.037-1.3-.484-1.285-1.136a1.146,1.146,0,0,1,1.266-1.08C18.2,321.242,19.2,321.242,20.34,321.242Z" transform="translate(0 -247.343)"/>
    <path id="Path_3491" data-name="Path 3491" d="M36.6,213.173a7.692,7.692,0,1,1,7.636,7.71A7.759,7.759,0,0,1,36.6,213.173Zm2.235.037a5.447,5.447,0,1,0,5.4-5.457A5.5,5.5,0,0,0,38.835,213.21Z" transform="translate(-29.855 -167.228)"/>
    <path id="Path_3492" data-name="Path 3492" d="M233.559,213.382a7.683,7.683,0,1,1-7.617-7.785A7.734,7.734,0,0,1,233.559,213.382Zm-2.235-.093a5.447,5.447,0,1,0-10.895.019,5.447,5.447,0,1,0,10.895-.019Z" transform="translate(-177.63 -167.307)" fill="#f04e3f"/>
  </g>
</svg>
