<svg xmlns="http://www.w3.org/2000/svg" width="56" height="59.851" viewBox="0 0 56 59.851">
  <g id="curriculum" transform="translate(-0.035)">
    <g id="Group_2443" data-name="Group 2443" transform="translate(35.761 0)">
      <g id="Group_2442" data-name="Group 2442" transform="translate(4.688 3.157)">
        <path id="Path_3475" data-name="Path 3475" d="M363.9,37.5h8.7L362.1,27v8.722A1.577,1.577,0,0,0,363.9,37.5Z" transform="translate(-360.182 -27)" fill="none"/>
        <path id="Path_3476" data-name="Path 3476" d="M361.262,415.363a.832.832,0,0,0-.854-.865.872.872,0,0,0-.889.889c-.012.152,0,.316,0,.468v5.612c0,1.836-.842,2.666-2.677,2.666H345.7v1.754h12.183c.094-.117.246-.094.374-.129a3.8,3.8,0,0,0,2.958-3.5C361.32,419.958,361.274,417.655,361.262,415.363Z" transform="translate(-345.7 -369.191)"/>
      </g>
      <path id="Path_3477" data-name="Path 3477" d="M325.874,15.012a1.913,1.913,0,0,0-.631-1.485Q318.806,7.126,312.381.69c-.246-.246-.514-.456-.783-.69h-6V1.8c.14.07,4.852.21,4.852.479-.012,1.064-.012.959-.012,2.034L312.194,6V3.169l10.5,10.5H319.28l.222,1.754c1.321,0,2.654,0,3.975-.023.526,0,.62.14.62.643q-.018,14.118-.012,28.224c0,.912.269,1.321.854,1.333.608.012.9-.421.9-1.356C325.862,34.491,325.85,24.752,325.874,15.012Z" transform="translate(-305.6 0)"/>
    </g>
    <g id="Group_2446" data-name="Group 2446" transform="translate(31.774 0)">
      <g id="Group_2445" data-name="Group 2445" transform="translate(4.677 3.157)">
        <path id="Path_3485" data-name="Path 3485" d="M329.7,37.5h8.7L327.9,27v8.722A1.581,1.581,0,0,0,329.7,37.5Z" transform="translate(-325.982 -27)" fill="none"/>
        <path id="Path_3486" data-name="Path 3486" d="M327.062,415.363a.832.832,0,0,0-.854-.865.872.872,0,0,0-.889.889c-.012.152,0,.316,0,.468v5.612c0,1.836-.842,2.666-2.677,2.666H311.5v1.754h12.183c.094-.117.246-.094.374-.129a3.8,3.8,0,0,0,2.958-3.5C327.132,419.958,327.074,417.655,327.062,415.363Z" transform="translate(-311.5 -369.191)"/>
      </g>
      <path id="Path_3487" data-name="Path 3487" d="M291.762,15.012a1.913,1.913,0,0,0-.631-1.485Q284.694,7.126,278.27.69c-.234-.246-.514-.456-.772-.69h-6V1.8c.14.07,4.852.21,4.852.479-.012,1.064-.012.959-.012,2.034L278.094,6V3.169l10.5,10.5H285.18l.222,1.754c1.321,0,2.654,0,3.975-.023.526,0,.62.14.62.643q-.017,14.118-.012,28.224c0,.912.269,1.321.854,1.333.608.012.9-.421.9-1.356Q291.756,29.616,291.762,15.012Z" transform="translate(-271.5)"/>
    </g>
    <g id="Group_2444" data-name="Group 2444" transform="translate(0.035 0)">
      <path id="Path_3478" data-name="Path 3478" d="M3.491,166.69a4.271,4.271,0,0,1-2.97-2.221A4.51,4.51,0,0,1,.1,162.435v-40.2c0-.83.316-1.251.9-1.239.561.012.854.433.854,1.228v40.022a3.513,3.513,0,0,0,.105,1.1,2.216,2.216,0,0,0,1.964,1.578c.2.012.386.012.585.012H43.126c1.836,0,2.677-.83,2.677-2.666v-5.612c0-.152-.012-.316,0-.468a.88.88,0,0,1,.889-.889.846.846,0,0,1,.854.865c.012,2.3.07,4.595-.035,6.9a3.8,3.8,0,0,1-2.958,3.5c-.129.035-.281,0-.374.129Z" transform="translate(-0.092 -106.851)" fill="#f04e3f"/>
      <path id="Path_3479" data-name="Path 3479" d="M66.174,216.154H49.466c-.935,0-1.38-.292-1.368-.889s.444-.865,1.333-.865H82.964c.9,0,1.321.281,1.333.865s-.433.889-1.368.889Z" transform="translate(-42.479 -189.332)" fill="#f04e3f"/>
      <path id="Path_3480" data-name="Path 3480" d="M66.239,283.754H49.531c-.9,0-1.333-.281-1.333-.854-.012-.6.444-.9,1.368-.9H83.04c.935,0,1.38.292,1.368.9-.012.585-.433.854-1.345.854Z" transform="translate(-42.567 -249.029)" fill="#f04e3f"/>
      <path id="Path_3481" data-name="Path 3481" d="M66.309,349.686H83.251c.725.012,1.146.339,1.134.877s-.421.865-1.158.877H49.52a2.3,2.3,0,0,1-.748-.07.859.859,0,0,1,.129-1.66,3.945,3.945,0,0,1,.643-.023Z" transform="translate(-42.555 -308.799)" fill="#f04e3f"/>
      <path id="Path_3482" data-name="Path 3482" d="M57.644,419.042H49.529a3.952,3.952,0,0,1-.643-.035.8.8,0,0,1-.69-.818.765.765,0,0,1,.608-.818,2.712,2.712,0,0,1,.69-.07H65.851a2.712,2.712,0,0,1,.69.07.761.761,0,0,1,.6.83.782.782,0,0,1-.678.818,3.881,3.881,0,0,1-.643.035Q61.73,419.036,57.644,419.042Z" transform="translate(-42.565 -368.509)" fill="#f04e3f"/>
      <path id="Path_3483" data-name="Path 3483" d="M47.5,15.012a1.913,1.913,0,0,0-.631-1.485Q40.432,7.126,34.007.69c-.246-.246-.514-.456-.772-.69H3.433a.63.63,0,0,1-.152.082A3.974,3.974,0,0,0,.042,4.2c-.012,1.286,0,2.572,0,3.858,0,.783-.023,1.555.012,2.338a.857.857,0,0,0,1.356.748,1.051,1.051,0,0,0,.4-.982V4.2A2.243,2.243,0,0,1,4.275,1.742q13.645,0,27.289-.012c.433,0,.55.094.538.538-.023,3.133-.012,6.267-.012,9.412,0,2.42,1.286,3.718,3.695,3.718,3.122,0,6.232.012,9.354-.012.526,0,.62.14.62.643q-.018,14.118-.012,28.224c0,.912.269,1.321.854,1.333.608.012.9-.421.9-1.356Q47.482,29.622,47.5,15.012Zm-3.695-1.356H35.633a1.577,1.577,0,0,1-1.8-1.777V3.157l10.5,10.5Z" transform="translate(-0.035)" fill="#f04e3f"/>
      <path id="Path_3484" data-name="Path 3484" d="M55.628,38.294a7.571,7.571,0,1,0,7.6,7.541A7.6,7.6,0,0,0,55.628,38.294ZM59.65,50.1a5.821,5.821,0,0,1-8.032-.058c-.234-.222-.246-.351-.035-.608a5.344,5.344,0,0,1,8.1-.07C59.942,49.659,59.954,49.834,59.65,50.1Zm-5.355-5.682a1.362,1.362,0,0,1,2.724-.058,1.362,1.362,0,0,1-1.356,1.38A1.4,1.4,0,0,1,54.295,44.421Zm6.7,3.753a7.613,7.613,0,0,0-2.537-1.824c-.386-.152-.117-.339-.035-.491a3.106,3.106,0,0,0-1.836-4.431A3.106,3.106,0,0,0,52.9,45.789c.234.444.094.514-.269.678a6.6,6.6,0,0,0-2.233,1.66c-1.006-1.66-.655-4.466,1.111-6.314a5.8,5.8,0,0,1,9.482,6.36Z" transform="translate(-42.478 -33.816)" fill="#f04e3f"/>
    </g>
  </g>
</svg>
