<svg xmlns="http://www.w3.org/2000/svg" width="63.56" height="63.474" viewBox="0 0 63.56 63.474">
  <g id="people" transform="translate(0 0.079)">
    <path id="Path_3472" data-name="Path 3472" d="M382.807,332.729a.715.715,0,0,1-.116-.629.245.245,0,0,0,.116.017Z" transform="translate(-319.28 -277.153)" fill="#5e5e5e"/>
    <path id="Path_3473" data-name="Path 3473" d="M63.428,54.994a7.328,7.328,0,0,0-6.692-6.179c-1.425-.066-2.849-.017-4.274-.033a4.333,4.333,0,0,1-4.506-3.909,17.937,17.937,0,0,1,0-3.528,4.355,4.355,0,0,1,8.68.149c.066.928.017,1.855.033,2.783a1.075,1.075,0,0,0,1.06,1.193,1.047,1.047,0,0,0,1.044-1.143c.017-1.06.033-2.1-.05-3.164a6.431,6.431,0,0,0-5.6-5.814,6.533,6.533,0,0,0-6.858,4.009,10.144,10.144,0,0,0-.48,3.595c-.083,2.137.133,4.174,1.739,5.864a7.593,7.593,0,0,0-5.533,3.545,7.705,7.705,0,0,0-7.4-3.562c-.911.05-1.822.017-2.733,0a4.356,4.356,0,0,1-4.473-4.522c0-.861-.017-1.739,0-2.6a4.35,4.35,0,0,1,8.7.017c.017.895-.017,1.772.017,2.667a1.076,1.076,0,0,0,1.077,1.126,1.056,1.056,0,0,0,1.044-1.143q.025-1.367,0-2.733a6.319,6.319,0,0,0-2.667-5.069c-.166-.133-.4-.2-.514-.431A5.152,5.152,0,0,1,38,35.182c1.276,0,2.568.017,3.843,0a6.454,6.454,0,0,0,6.46-5.4,19.749,19.749,0,0,0,.083-3.959A6.382,6.382,0,0,0,43.5,19.777a.861.861,0,0,1-.729-.729A7.247,7.247,0,0,0,37.5,13.73a2.786,2.786,0,0,1-.977-.265,6.613,6.613,0,0,0,1.69-4.738c-.017-.812,0-1.607-.017-2.419A6.468,6.468,0,0,0,25.527,4.636a15.533,15.533,0,0,0-.166,5.533,5.833,5.833,0,0,0,1.607,3.33,8.3,8.3,0,0,0-2.75.928c-.679.4-.911.961-.613,1.524.3.6.928.712,1.657.315A4.872,4.872,0,0,1,27.5,15.6c2.833-.017,5.665-.05,8.5,0a5.124,5.124,0,0,1,4.754,4.025c-.215.066-.431.1-.646.182a6.257,6.257,0,0,0-4.473,4.837,16.436,16.436,0,0,0-.083,4.936,5.949,5.949,0,0,0,1.607,3.446c-.2.05-.331.1-.464.133a6.719,6.719,0,0,0-3.412,1.64,1.743,1.743,0,0,1-1.358.5,6.331,6.331,0,0,0-6.494,5.218,17.6,17.6,0,0,0-.033,4.936A6.162,6.162,0,0,0,27,48.782a7.627,7.627,0,0,0-5.466,3.528A7.664,7.664,0,0,0,14.2,48.749c-.944.05-1.9.033-2.849,0a4.349,4.349,0,0,1-4.456-4.29,25.241,25.241,0,0,1,.033-3.164,4.347,4.347,0,0,1,8.6-.381,24.848,24.848,0,0,1,.1,3.33c.033.712.447,1.193,1.077,1.176a1.09,1.09,0,0,0,1.044-1.16c.017-.58-.017-1.16,0-1.739a6.683,6.683,0,0,0-3.1-6.344c-.033-.017-.05-.066-.066-.116a5,5,0,0,1,2.882-.944c1.309,0,2.6.017,3.909-.017a6.5,6.5,0,0,0,6.378-4.97,16.143,16.143,0,0,0,.166-4.191,6.394,6.394,0,0,0-4.837-6.212A.9.9,0,0,1,22.33,19a7.2,7.2,0,0,0-5.3-5.351,2.7,2.7,0,0,1-.977-.265,6.3,6.3,0,0,0,1.657-4.042c.05-1.11.05-2.236,0-3.346A6.467,6.467,0,0,0,12.043.048,6.551,6.551,0,0,0,5.185,4.156,11.033,11.033,0,0,0,4.754,7.75c-.1,2.1.166,4.075,1.673,5.682a.412.412,0,0,1-.348.166,7.377,7.377,0,0,0-5.7,4.953A5.927,5.927,0,0,1,0,19.826V27.38c.248.729.547.944,1.193.895a1.174,1.174,0,0,0,1.077-1.342c.017-2-.017-4.009.017-6.013a5.129,5.129,0,0,1,5.185-5.135c2.584-.017,5.168-.033,7.752,0A4.794,4.794,0,0,1,19.679,18.5c.5.961.5.961-.53,1.309a6.545,6.545,0,0,0-4.323,6,17.33,17.33,0,0,1-.017,1.855,6.89,6.89,0,0,0,1.209,4.87c.265.348.166.464-.232.563a5.655,5.655,0,0,0-2.369,1.044,3.524,3.524,0,0,1-2.932,1.01,1.38,1.38,0,0,0-.364.05A6.715,6.715,0,0,0,4.605,41.03c-.066.563.066,1.11,0,1.657a7.779,7.779,0,0,0,1.226,5.6c.2.282.166.4-.182.5C2.468,49.726.447,51.731,0,55.143V62.7a.958.958,0,0,0,.745.745h.613a1.046,1.046,0,0,0,.861-.779,3.778,3.778,0,0,0,.066-.861c0-1.839-.017-3.677,0-5.516a5.133,5.133,0,0,1,5.235-5.2c2.584.083,5.168.017,7.752.017a4.725,4.725,0,0,1,1.524.232,5.1,5.1,0,0,1,3.479,4.92c.017,1.922,0,3.843,0,5.765,0,.679.2,1.226.928,1.408h.613a1.249,1.249,0,0,0,.928-1.408c0-1.955-.017-3.926,0-5.881A5.041,5.041,0,0,1,27.863,51.1H35.8a4.341,4.341,0,0,1,1.524.265,5.127,5.127,0,0,1,3.429,4.9c.017,1.922,0,3.843,0,5.765,0,.679.2,1.226.928,1.408h.613a1.249,1.249,0,0,0,.928-1.408c0-1.955-.017-3.926,0-5.881a5.021,5.021,0,0,1,5.119-5.036h7.885a4.321,4.321,0,0,1,1.458.215,5.158,5.158,0,0,1,3.528,4.953c.017,1.922,0,3.843.017,5.765,0,.878.182,1.126.928,1.391h.613a.958.958,0,0,0,.745-.745V55.64C63.378,55.441,63.544,55.193,63.428,54.994Zm-27.4-44.958a4.387,4.387,0,0,1-4.572,3.446,4.337,4.337,0,0,1-4.042-4.307c-.017-.944-.017-1.9,0-2.849a4.359,4.359,0,0,1,8.713-.017c.017.5,0,.994,0,1.69A13.016,13.016,0,0,1,36.029,10.036ZM37.7,25.127a4.347,4.347,0,0,1,8.6.729c.017.5,0,.994,0,1.491a11.681,11.681,0,0,1-.116,2.4,4.365,4.365,0,0,1-4.572,3.28A4.32,4.32,0,0,1,37.6,28.771,17.819,17.819,0,0,1,37.7,25.127ZM15.621,8.015a12.951,12.951,0,0,1-.083,1.872,4.394,4.394,0,0,1-4.406,3.595A4.33,4.33,0,0,1,6.924,9.556a20.137,20.137,0,0,1,0-3.462A4.338,4.338,0,0,1,11.4,2.118a4.387,4.387,0,0,1,4.224,4.208C15.637,6.806,15.621,7.3,15.621,8.015ZM17.112,25.74a4.313,4.313,0,0,1,4.39-4.058,4.373,4.373,0,0,1,4.307,4.108c.017.514,0,1.027,0,1.772a12.345,12.345,0,0,1-.083,1.988,4.378,4.378,0,0,1-4.489,3.479,4.31,4.31,0,0,1-4.125-4.141C17.062,27.844,17.062,26.784,17.112,25.74Z" transform="translate(0 -0.047)"/>
    <path id="Path_3474" data-name="Path 3474" d="M287.721,19.7a7.337,7.337,0,0,0-5.2-5.963c-.364-.116-.745-.182-1.193-.282a7.209,7.209,0,0,0,1.723-5.682c-.017-.331-.033-.663-.017-.994a6.469,6.469,0,0,0-12.739-1.922,16.17,16.17,0,0,0-.2,3.578,6.682,6.682,0,0,0,1.623,4.92c.017.017,0,.066-.017.133a7.788,7.788,0,0,0-2.17.646,1.061,1.061,0,0,0-.613,1.425,1.046,1.046,0,0,0,1.458.514,6.042,6.042,0,0,1,2.584-.5h7.256a5.3,5.3,0,0,1,5.516,5.483c0,1.9.017,3.793,0,5.7,0,.613.133,1.126.779,1.309a1.112,1.112,0,0,0,1.342-.712V19.912C287.738,19.862,287.738,19.779,287.721,19.7Zm-6.891-9.624a4.4,4.4,0,0,1-4.522,3.363,4.349,4.349,0,0,1-4.075-4.025,15.873,15.873,0,0,1,.066-3.76A4.342,4.342,0,0,1,280.9,6c.05.58,0,1.16,0,1.723A7.991,7.991,0,0,1,280.83,10.072Z" transform="translate(-224.293)" fill="#f04e3f"/>
  </g>
</svg>
