<svg xmlns="http://www.w3.org/2000/svg" width="96.653" height="75.676" viewBox="0 0 96.653 75.676">
  <g id="interview" transform="translate(0.089 -0.428)">
    <path id="Path_3489" data-name="Path 3489" d="M196.173,323.668H185.539a3.473,3.473,0,0,1-3.781-3.464c-.093-3.483-.056-6.984.019-10.485a5.748,5.748,0,0,1,5.941-5.513c5.643-.019,11.3-.037,16.948,0a5.841,5.841,0,0,1,5.978,6.127c.019,3.129,0,6.239,0,9.368a3.613,3.613,0,0,1-3.911,3.948C203.213,323.668,199.693,323.668,196.173,323.668Zm8.157-2.235h2.291c1.322,0,1.788-.466,1.788-1.788v-9.07c0-2.7-1.434-4.153-4.116-4.153h-16.2c-2.7,0-4.134,1.434-4.153,4.116v9a5.018,5.018,0,0,0,.056.745,1.2,1.2,0,0,0,1.117,1.117c.95.074,1.918.019,2.924.019v-8.455a1.14,1.14,0,0,1,1.136-1.285c.633.019,1.043.5,1.08,1.266v8.474h11.826v-8.25c.019-.95.41-1.471,1.1-1.471.689-.019,1.117.521,1.136,1.453.019,2.049,0,4.116,0,6.164C204.331,319.98,204.331,320.669,204.331,321.433Z" transform="translate(-147.936 -285.396)" fill="#f04e3f"/>
    <path id="Path_3490" data-name="Path 3490" d="M20.34,321.242v-7.8c0-.279-.019-.54,0-.819a1.156,1.156,0,0,1,1.136-1.155,1.11,1.11,0,0,1,1.08,1.192c.019,1.751,0,3.52,0,5.271v3.241c1.043,0,2.049.056,3.036-.019a1.1,1.1,0,0,0,.987-1.062,5.858,5.858,0,0,0,.056-.819v-8.921c0-2.7-1.434-4.134-4.134-4.134H6.3c-2.7,0-4.134,1.434-4.134,4.116v8.921c0,1.564.41,1.956,1.993,1.956H6.241v-8.064c0-.317-.056-.726.112-.931.242-.317.67-.726.987-.708.372.019.764.428,1.043.745.149.186.093.577.093.875V321.2H10.99c.242,0,.5-.019.745,0a1.114,1.114,0,0,1,1.155,1.1,1.08,1.08,0,0,1-1.136,1.117c-2.831.019-5.643.056-8.474-.019a3.438,3.438,0,0,1-3.315-3.39c-.056-3.464-.093-6.947.019-10.411a5.742,5.742,0,0,1,6-5.624q8.437-.056,16.873,0a5.819,5.819,0,0,1,6.015,6.09c.056,3.166.037,6.351,0,9.517a3.593,3.593,0,0,1-3.948,3.836H17.192c-.8-.037-1.3-.484-1.285-1.136a1.146,1.146,0,0,1,1.266-1.08C18.2,321.242,19.2,321.242,20.34,321.242Z" transform="translate(0 -247.343)"/>
    <path id="Path_3493" data-name="Path 3493" d="M20.34,321.242v-7.8c0-.279-.019-.54,0-.819a1.156,1.156,0,0,1,1.136-1.155,1.11,1.11,0,0,1,1.08,1.192c.019,1.751,0,3.52,0,5.271v3.241c1.043,0,2.049.056,3.036-.019a1.1,1.1,0,0,0,.987-1.062,5.858,5.858,0,0,0,.056-.819v-8.921c0-2.7-1.434-4.134-4.134-4.134H6.3c-2.7,0-4.134,1.434-4.134,4.116v8.921c0,1.564.41,1.956,1.993,1.956H6.241v-8.064c0-.317-.056-.726.112-.931.242-.317.67-.726.987-.708.372.019.764.428,1.043.745.149.186.093.577.093.875V321.2H10.99c.242,0,.5-.019.745,0a1.114,1.114,0,0,1,1.155,1.1,1.08,1.08,0,0,1-1.136,1.117c-2.831.019-5.643.056-8.474-.019a3.438,3.438,0,0,1-3.315-3.39c-.056-3.464-.093-6.947.019-10.411a5.742,5.742,0,0,1,6-5.624q8.437-.056,16.873,0a5.819,5.819,0,0,1,6.015,6.09c.056,3.166.037,6.351,0,9.517a3.593,3.593,0,0,1-3.948,3.836H17.192c-.8-.037-1.3-.484-1.285-1.136a1.146,1.146,0,0,1,1.266-1.08C18.2,321.242,19.2,321.242,20.34,321.242Z" transform="translate(67.66 -247.343)"/>
    <path id="Path_3491" data-name="Path 3491" d="M36.6,213.173a7.692,7.692,0,1,1,7.636,7.71A7.759,7.759,0,0,1,36.6,213.173Zm2.235.037a5.447,5.447,0,1,0,5.4-5.457A5.5,5.5,0,0,0,38.835,213.21Z" transform="translate(-29.855 -167.228)"/>
    <path id="Path_3494" data-name="Path 3494" d="M36.6,213.173a7.692,7.692,0,1,1,7.636,7.71A7.759,7.759,0,0,1,36.6,213.173Zm2.235.037a5.447,5.447,0,1,0,5.4-5.457A5.5,5.5,0,0,0,38.835,213.21Z" transform="translate(37.805 -167.228)"/>
    <path id="Path_3492" data-name="Path 3492" d="M233.559,213.382a7.683,7.683,0,1,1-7.617-7.785A7.734,7.734,0,0,1,233.559,213.382Zm-2.235-.093a5.447,5.447,0,1,0-10.895.019,5.447,5.447,0,1,0,10.895-.019Z" transform="translate(-177.63 -205.169)" fill="#f04e3f"/>
  </g>
</svg>
