<svg xmlns="http://www.w3.org/2000/svg" width="62.999" height="62.968" viewBox="0 0 62.999 62.968">
  <g id="conversation" transform="translate(0.044)">
    <path id="Path_3455" data-name="Path 3455" d="M263.647.108c-.108.015-.216.046-.247-.108h.247c.046.031.062.046.046.077C263.677.092,263.662.108,263.647.108Z" transform="translate(-222.84 0)" fill="#f04e3f"/>
    <path id="Path_3456" data-name="Path 3456" d="M265,.108V0h.247c.046.031.062.046.046.077-.015.015-.031.031-.046.031Z" transform="translate(-224.194 0)" fill="#f04e3f"/>
    <path id="Path_3457" data-name="Path 3457" d="M266.6.108V0h.247C266.8.123,266.708.123,266.6.108Z" transform="translate(-225.547 0)" fill="#f04e3f"/>
    <path id="Path_3458" data-name="Path 3458" d="M297.247.108c-.108.015-.2.015-.247-.108h.247a.083.083,0,0,1,.046.062C297.262.092,297.262.108,297.247.108Z" transform="translate(-251.261 0)" fill="#f04e3f"/>
    <path id="Path_3459" data-name="Path 3459" d="M298.6.108V0h.247a.058.058,0,0,1,.046.062c-.015.031-.031.031-.031.031A1.68,1.68,0,0,1,298.6.108Z" transform="translate(-252.615 0)" fill="#f04e3f"/>
    <path id="Path_3460" data-name="Path 3460" d="M300.2.108V0h.247C300.4.154,300.292.123,300.2.108Z" transform="translate(-253.968 0)" fill="#f04e3f"/>
    <path id="Path_3461" data-name="Path 3461" d="M407.946,107.947c-.015-.108-.031-.2.108-.247v.247C408.008,108.008,407.977,108.008,407.946,107.947Z" transform="translate(-345.1 -91.1)" fill="#787878"/>
    <path id="Path_3462" data-name="Path 3462" d="M407.962,109.3h.108v.247C407.946,109.5,407.946,109.408,407.962,109.3Z" transform="translate(-345.115 -92.454)" fill="#5e5e5e"/>
    <path id="Path_3463" data-name="Path 3463" d="M408.064,123.147c-.17-.077-.139-.17,0-.247Z" transform="translate(-345.109 -103.958)" fill="#4d4d4d"/>
    <path id="Path_3464" data-name="Path 3464" d="M20.631,176.061v-2.1c.015-1.079.447-1.526,1.541-1.526H34.78a6.193,6.193,0,0,0,6.5-6.52V158.29a3.339,3.339,0,0,1,.015-.555,1.249,1.249,0,0,1,1.218-1.156,1.194,1.194,0,0,1,1.2,1.156,89.827,89.827,0,0,1-.108,9.772,8.4,8.4,0,0,1-8.215,7.367c-3.9.062-7.783.031-11.683.015-.493,0-.663.092-.647.616.046,1.11,0,2.219.015,3.314a1.269,1.269,0,0,1-2.281.94c-1.51-1.51-3.021-3.006-4.516-4.531a1.107,1.107,0,0,0-.863-.354c-2.25.015-4.516.015-6.766,0a8.579,8.579,0,0,1-8.492-6.8,8.156,8.156,0,0,1-.2-1.834c0-6.288-.015-12.592,0-18.881A8.558,8.558,0,0,1,6.806,138.9a7.247,7.247,0,0,1,1.526-.185q6.242-.023,12.484-.015a1.274,1.274,0,0,1,1.4,1.233,1.293,1.293,0,0,1-1.4,1.233H8.886a7.348,7.348,0,0,0-2.235.339,6.063,6.063,0,0,0-4.208,5.5q-.069,9.779,0,19.559a6.142,6.142,0,0,0,5.934,5.841c2.6.046,5.21.015,7.814,0a1.874,1.874,0,0,1,1.526.709C18.612,174.134,19.6,175.028,20.631,176.061Z" transform="translate(0 -117.322)"/>
    <path id="Path_3465" data-name="Path 3465" d="M57.493,249.929H45.024a4.12,4.12,0,0,1-.617-.015,1.213,1.213,0,0,1,.031-2.42,3.339,3.339,0,0,1,.555-.015H70.255c.879.015,1.464.509,1.449,1.248-.015.724-.586,1.218-1.48,1.218Q63.843,249.922,57.493,249.929Z" transform="translate(-36.662 -209.332)"/>
    <path id="Path_3466" data-name="Path 3466" d="M55.091,294.63H45.011a4.112,4.112,0,0,1-.617-.015,1.226,1.226,0,0,1-1.094-1.2,1.267,1.267,0,0,1,1.094-1.218,2.6,2.6,0,0,1,.493-.015H65.31q1.225,0,1.48.832a1.227,1.227,0,0,1-1.233,1.618c-.925.031-1.85,0-2.774,0Z" transform="translate(-36.664 -247.143)"/>
    <path id="Path_3467" data-name="Path 3467" d="M53.4,202.7h8.724c1.094,0,1.742.832,1.356,1.7a1.266,1.266,0,0,1-1.279.755H44.689c-.925-.015-1.526-.509-1.5-1.248.015-.724.586-1.2,1.48-1.2Z" transform="translate(-36.573 -171.458)"/>
    <path id="Path_3468" data-name="Path 3468" d="M214.134,293.431a1.218,1.218,0,1,1-1.2-1.233A1.262,1.262,0,0,1,214.134,293.431Z" transform="translate(-179.107 -247.162)" fill="#010101"/>
    <path id="Path_3469" data-name="Path 3469" d="M195.369,16.122c-.17-.74-.108-1.5-.293-2.235A18.157,18.157,0,0,0,182.145.462,24.838,24.838,0,0,0,179.14,0h-.247c-.077.077-.17.062-.262.062h-.216c-.092,0-.185.015-.262-.062H173.73c-.077.077-.17.062-.262.062h-.216c-.092,0-.185.015-.262-.062-.123,0-.215.062-.339.062-.156.093-.232.046-.34.062a17.523,17.523,0,0,0-8.955,3.714,17.551,17.551,0,0,0-6.751,12.238A17.242,17.242,0,0,0,159.38,27.6a17.155,17.155,0,0,0,9.972,7.429,26.9,26.9,0,0,0,12.238.262.686.686,0,0,1,.74.216c1.356,1.372,2.728,2.728,4.084,4.084a1.353,1.353,0,0,0,1.541.447,1.3,1.3,0,0,0,.755-1.4c-.015-2,.015-4.023-.015-6.026a1.59,1.59,0,0,1,.6-1.356,17.6,17.6,0,0,0,5.472-8.832,24.189,24.189,0,0,1,.57-2.589V19.22a.16.16,0,0,1,0-.247v-1.85c-.077-.062-.062-.154-.062-.247s-.015-.185.062-.247A2.992,2.992,0,0,0,195.369,16.122Zm-2.589,3.637a14.445,14.445,0,0,1-5.055,9.587,3.448,3.448,0,0,0-1.48,3.237c.108,1.063.015,2.158.015,3.36-.956-.956-1.834-1.8-2.682-2.682a1.724,1.724,0,0,0-1.927-.539,24.4,24.4,0,0,1-7.984.539,14.455,14.455,0,0,1-8.816-3.283,14.866,14.866,0,0,1-5.687-14.411,14.9,14.9,0,0,1,8.924-11.745A12.622,12.622,0,0,1,172.5,2.6a30.327,30.327,0,0,1,7.475.108,14.873,14.873,0,0,1,9.556,5.61A14.826,14.826,0,0,1,192.78,19.759Z" transform="translate(-132.415)" fill="#f04e3f"/>
    <path id="Path_3470" data-name="Path 3470" d="M255.031,67.09c0-.493-.015-.986,0-1.48a2.252,2.252,0,0,1,1.526-2.1c.185-.077.385-.123.586-.2a2.742,2.742,0,0,0-.94-5.333,2.711,2.711,0,0,0-2.666,2.4c-.031.185-.062.37-.092.539a1.2,1.2,0,0,1-2.389-.185,5.26,5.26,0,0,1,5.657-5.225,5.2,5.2,0,0,1,4.716,5.472,5.093,5.093,0,0,1-3.406,4.578.642.642,0,0,0-.539.771,19.021,19.021,0,0,1,0,2.1,1.3,1.3,0,0,1-1.218,1.418c-.724.015-1.218-.57-1.233-1.449V67.09Z" transform="translate(-212.39 -46.93)" fill="#f04e3f"/>
    <path id="Path_3471" data-name="Path 3471" d="M279.349,165.931a1.249,1.249,0,0,1-1.218,1.2,1.218,1.218,0,1,1,0-2.435A1.287,1.287,0,0,1,279.349,165.931Z" transform="translate(-234.258 -139.313)" fill="#f04e3f"/>
  </g>
</svg>
