<svg xmlns="http://www.w3.org/2000/svg" width="179.967" height="46" viewBox="0 0 179.967 46">
  <g id="logo" transform="translate(-0.009 -0.023)">
    <g id="Group_2173" data-name="Group 2173" transform="translate(51.158 7.068)">
      <g id="Group_2172" data-name="Group 2172">
        <path id="Path_3219" data-name="Path 3219" d="M194.651,56.09a7.538,7.538,0,0,1-2.613-.463,6.415,6.415,0,0,1-2.123-1.279,6.182,6.182,0,0,1-1.47-1.906,5.4,5.4,0,0,1-.544-2.368V25.9h4.41V50.047a1.261,1.261,0,0,0,.626,1.089,2.706,2.706,0,0,0,1.688.517h.544v4.41h-.517Z" transform="translate(-187.9 -25.9)"/>
        <path id="Path_3220" data-name="Path 3220" d="M224.78,79.533a10.4,10.4,0,0,1-4.192-.844,11.046,11.046,0,0,1-3.43-2.314,11.249,11.249,0,0,1-2.314-3.4A10.212,10.212,0,0,1,214,68.78a10.62,10.62,0,0,1,.844-4.22,10.737,10.737,0,0,1,2.314-3.43,11.46,11.46,0,0,1,3.43-2.287,10.835,10.835,0,0,1,8.385,0,11,11,0,0,1,3.4,2.287,10.855,10.855,0,0,1,3.131,7.677v.6c0,.218-.027.6-.082,1.116l-.054.49h-16.5a6.488,6.488,0,0,0,.626,1.225,6.711,6.711,0,0,0,1.388,1.524,5.972,5.972,0,0,0,3.866,1.361,3.343,3.343,0,0,0,1.633-.436,7.566,7.566,0,0,0,1.688-1.225l.381-.354,3.131,3.131-.408.381a11.994,11.994,0,0,1-2.995,2.123A7.8,7.8,0,0,1,224.78,79.533Zm5.853-12.958a6.489,6.489,0,0,0-.626-1.225,6.08,6.08,0,0,0-1.361-1.524,5.731,5.731,0,0,0-1.8-.98,6.385,6.385,0,0,0-4.192,0,7.177,7.177,0,0,0-1.8.98A6.135,6.135,0,0,0,219.5,65.35a6.49,6.49,0,0,0-.626,1.225Z" transform="translate(-206.895 -49.262)"/>
        <path id="Path_3221" data-name="Path 3221" d="M302.8,80.089,293.9,59.4h4.846l5.907,13.884c.9-2.1,1.8-4.192,2.668-6.234,1.062-2.5,2.1-4.927,3.131-7.323l.136-.327h4.846l-8.9,20.689Z" transform="translate(-265.044 -50.28)"/>
        <path id="Path_3222" data-name="Path 3222" d="M380.78,79.533a10.4,10.4,0,0,1-4.192-.844,11.046,11.046,0,0,1-3.43-2.314,11.248,11.248,0,0,1-2.314-3.4A10.212,10.212,0,0,1,370,68.78a10.62,10.62,0,0,1,.844-4.22,10.737,10.737,0,0,1,2.314-3.43,11.461,11.461,0,0,1,3.43-2.287,10.835,10.835,0,0,1,8.385,0,11,11,0,0,1,3.4,2.287,10.666,10.666,0,0,1,2.287,3.43,10.525,10.525,0,0,1,.844,4.22v.6c0,.218-.027.6-.082,1.116l-.054.49H374.9a6.489,6.489,0,0,0,.626,1.225,6.711,6.711,0,0,0,1.388,1.524A5.972,5.972,0,0,0,380.78,75.1a3.343,3.343,0,0,0,1.633-.436,7.567,7.567,0,0,0,1.688-1.225l.381-.354,3.131,3.131-.408.381a11.994,11.994,0,0,1-2.994,2.123A7.573,7.573,0,0,1,380.78,79.533Zm5.88-12.958a6.489,6.489,0,0,0-.626-1.225,6.079,6.079,0,0,0-1.361-1.524,5.731,5.731,0,0,0-1.8-.98,6.385,6.385,0,0,0-4.192,0,7.177,7.177,0,0,0-1.8.98,6.135,6.135,0,0,0-1.361,1.524,6.489,6.489,0,0,0-.626,1.225Z" transform="translate(-320.427 -49.262)"/>
        <path id="Path_3223" data-name="Path 3223" d="M465.551,56.09a7.538,7.538,0,0,1-2.613-.463,6.415,6.415,0,0,1-2.123-1.279,6.182,6.182,0,0,1-1.47-1.906,5.4,5.4,0,0,1-.544-2.368V25.9h4.41V50.047a1.261,1.261,0,0,0,.626,1.089,2.706,2.706,0,0,0,1.688.517h.544v4.41h-.517Z" transform="translate(-385.054 -25.9)"/>
        <g id="Group_2169" data-name="Group 2169" transform="translate(87.984 9.065)">
          <path id="Path_3224" data-name="Path 3224" d="M519.512,80.3a7.845,7.845,0,0,1-3.294-.681,9.024,9.024,0,0,1-2.668-1.8,8.531,8.531,0,0,1-1.8-2.668,8.2,8.2,0,0,1-.653-3.24V59.2h4.41V71.913a4.254,4.254,0,0,0,.3,1.552,4.056,4.056,0,0,0,.844,1.252,4.408,4.408,0,0,0,1.252.844,3.756,3.756,0,0,0,1.552.3,4,4,0,0,0,1.524-.3,3.948,3.948,0,0,0,2.1-2.1,3.756,3.756,0,0,0,.3-1.552V59.2h4.465V71.913a7.9,7.9,0,0,1-.681,3.267,9.025,9.025,0,0,1-1.8,2.668,8.231,8.231,0,0,1-2.668,1.8A7.662,7.662,0,0,1,519.512,80.3Z" transform="translate(-511.1 -59.2)"/>
        </g>
        <g id="Group_2171" data-name="Group 2171" transform="translate(107.257 8.766)">
          <g id="Group_2170" data-name="Group 2170" transform="translate(0 0)">
            <path id="Path_3225" data-name="Path 3225" d="M581.9,88.29V68.88a10.62,10.62,0,0,1,.844-4.22,10.738,10.738,0,0,1,2.314-3.43,11.459,11.459,0,0,1,3.43-2.287,10.835,10.835,0,0,1,8.385,0,11.46,11.46,0,0,1,3.43,2.287,10.736,10.736,0,0,1,2.314,3.43,10.525,10.525,0,0,1,.844,4.22,10.875,10.875,0,0,1-.844,4.192,11.248,11.248,0,0,1-2.314,3.4,11.046,11.046,0,0,1-3.43,2.314,10.4,10.4,0,0,1-4.192.844,10.6,10.6,0,0,1-3.947-.735,10.072,10.072,0,0,1-2.368-1.307v10.7Zm10.807-25.753a6.153,6.153,0,0,0-2.45.49,6.4,6.4,0,0,0-3.376,3.376,6.37,6.37,0,0,0,0,4.9,6.006,6.006,0,0,0,1.361,1.987,6.241,6.241,0,0,0,2.042,1.361,6.37,6.37,0,0,0,4.9,0,6.541,6.541,0,0,0,2.042-1.361,6.3,6.3,0,0,0,1.361-1.987,6.37,6.37,0,0,0,0-4.9,6.4,6.4,0,0,0-3.376-3.376A6.723,6.723,0,0,0,592.707,62.537Z" transform="translate(-581.9 -58.1)"/>
          </g>
        </g>
      </g>
    </g>
    <g id="Group_2175" data-name="Group 2175" transform="translate(0.009 0.023)">
      <g id="Group_2174" data-name="Group 2174" transform="translate(0 0)">
        <path id="Path_3226" data-name="Path 3226" d="M28.4,97.293a16.7,16.7,0,0,0,4.519.218,13.343,13.343,0,0,1,5.608.789l4.982-4.6Z" transform="translate(-20.671 -68.199)" fill="#00a1b4"/>
        <path id="Path_3227" data-name="Path 3227" d="M1.667,66.2A6.117,6.117,0,0,0,.251,72.053a6.225,6.225,0,0,0,2.123,3.131l.544.327a15.393,15.393,0,0,0,4.818,1.8l15.109-3.621Z" transform="translate(-0.009 -48.185)" fill="#ffd401"/>
        <path id="Path_3228" data-name="Path 3228" d="M115.6,134.254a13.792,13.792,0,0,0,1.47.98l.544.327a5.823,5.823,0,0,0,3.757.327,6.069,6.069,0,0,0,3.675-2.559l-6.7-9.228Z" transform="translate(-84.133 -90.323)" fill="#00bcd0"/>
        <path id="Path_3229" data-name="Path 3229" d="M83.9,93.6l3.158,11.025a13.382,13.382,0,0,1,.653,1.225,15.832,15.832,0,0,0,4.818,6.18L95.279,101.9Z" transform="translate(-61.063 -68.126)" fill="#64e3ed"/>
        <path id="Path_3230" data-name="Path 3230" d="M65.7,98.228a15.531,15.531,0,0,1,2.831,1.307,15.238,15.238,0,0,1,5.308,5.118L70.655,93.6Z" transform="translate(-47.817 -68.126)" fill="#00d0e2"/>
        <path id="Path_3231" data-name="Path 3231" d="M19.9,37.1,7.733,43.742A5.77,5.77,0,0,0,6.1,45.022l21.179,7.486Z" transform="translate(-4.442 -27.007)" fill="#f04e3f"/>
        <path id="Path_3232" data-name="Path 3232" d="M99.736,5.9,95.952,7.942,94.4,8.786h10.7Z" transform="translate(-68.704 -4.3)" fill="#9a258e"/>
        <path id="Path_3233" data-name="Path 3233" d="M77.734,16.5h-10.7L56.8,22.108l7.377,15.381Z" transform="translate(-41.34 -12.015)" fill="#ee0f6a"/>
        <path id="Path_3234" data-name="Path 3234" d="M95.279,45.819,97.457,16.5,83.9,37.489Z" transform="translate(-61.063 -12.015)" fill="#62bb45"/>
        <path id="Path_3235" data-name="Path 3235" d="M132.324,126.124a6.308,6.308,0,0,0,1.062-3.566l-.054-8.357-7.731,2.7Z" transform="translate(-91.411 -83.118)" fill="#00d0e2"/>
        <path id="Path_3236" data-name="Path 3236" d="M125.7,45.819l7.731-2.722-.109-18.375L127.878,16.5Z" transform="translate(-91.484 -12.015)" fill="#fdaf17"/>
        <path id="Path_3237" data-name="Path 3237" d="M122.738,1.7A6.32,6.32,0,0,0,121.65.888a6.153,6.153,0,0,0-6.1-.109L114,1.623l5.363,2.913Z" transform="translate(-82.969 -0.023)" fill="#9a258e"/>
        <path id="Path_3238" data-name="Path 3238" d="M139.145,23.266v-.517l-.082-6.043a5.9,5.9,0,0,0-.436-2.205l-4.927.572Z" transform="translate(-97.306 -10.559)" fill="#ef4e3f"/>
        <path id="Path_3239" data-name="Path 3239" d="M137.076,6.2,133.7,9.031l4.927-.572A5.788,5.788,0,0,0,137.076,6.2Z" transform="translate(-97.306 -4.519)" fill="#ee0f6a"/>
      </g>
      <path id="Path_3240" data-name="Path 3240" d="M77.906,64.413a2.33,2.33,0,0,0,1.878-2.259l.327-10.317.054-2.287a2.3,2.3,0,0,0-1.089-2.042,2.4,2.4,0,0,0-2.314-.136l-2.042,1.007-9.256,4.628a2.361,2.361,0,0,0-1.252,2.668,2.276,2.276,0,0,0,.762,1.2l.191.136a6.06,6.06,0,0,0,3.512.9,5.836,5.836,0,0,1,5.308,3.4,5.938,5.938,0,0,0,2.287,2.8l.191.136A2.676,2.676,0,0,0,77.906,64.413Z" transform="translate(-46.684 -34.311)" fill="#fff"/>
    </g>
  </g>
</svg>
