<svg id="Layer_1" data-name="Layer 1" xmlns="http://www.w3.org/2000/svg" viewBox="0 0 154.26 168.01" width="500" height="500" class="pagelogo">
    <defs>
        <style>.cls-1{fill:transparent;}
            .cls-2{fill:transparent;}
            .cls-3{fill:transparent;}
            .cls-4{fill:transparent;}
            .cls-5{fill:transparent;}
            .cls-6{fill:transparent;}
            .cls-7{fill:transparent;}
            .cls-8{fill:transparent;}
            .cls-9{fill:transparent;}
            .cls-10{fill:transparent;}
            .cls-11{fill:transparent;}
            .cls-12{fill:transparent;}
        </style>
    </defs>
    <path class="cls-1" d="M28.44,106.89a60.94,60.94,0,0,0,16.59.78,49.12,49.12,0,0,1,20.64,2.89L83.93,93.63Z"/><path class="cls-2" d="M6.14,66.18a22.2,22.2,0,0,0,2.58,33l2,1.17a54.77,54.77,0,0,0,17.72,6.57L83.93,93.63Z"/><path class="cls-3" d="M115.63,161.39A54.38,54.38,0,0,0,121,165l2,1.17a22.33,22.33,0,0,0,13.82,1.25A22,22,0,0,0,150.34,158l-24.65-33.89Z"/>
    <path class="cls-4" d="M83.93,93.63l11.58,40.51a43.46,43.46,0,0,1,2.37,4.52,58.66,58.66,0,0,0,17.75,22.73l10.06-37.24Z"/>
    <path class="cls-5" d="M65.67,110.56A59.89,59.89,0,0,1,76,115.38a55.42,55.42,0,0,1,19.49,18.76L83.93,93.63Z"/><path class="cls-6" d="M56.83,37.06,12.13,61.49a23.62,23.62,0,0,0-6,4.69L83.93,93.63Z"/>
    <polygon class="cls-7" points="114 5.86 100.13 13.4 94.38 16.54 133.72 16.54 114 5.86"/>
    <polygon class="cls-8" points="133.72 16.54 94.38 16.54 56.83 37.06 83.93 93.63 133.72 16.54"/>
    <polygon class="cls-9" points="125.69 124.15 133.72 16.54 83.93 93.63 125.69 124.15"/>
    <path class="cls-5" d="M150.34,158a23.59,23.59,0,0,0,3.92-13.13l-.19-30.69-28.38,9.93Z"/>
    <polygon class="cls-10" points="125.69 124.15 154.07 114.22 153.66 46.73 133.72 16.54 125.69 124.15"/>
    <path class="cls-7" d="M146.13,6.18a23.18,23.18,0,0,0-4-3,22.63,22.63,0,0,0-22.44-.37L114,5.86l19.72,10.68Z"/>
    <path class="cls-11" d="M153.66,46.73V44.79l-.28-22.21a22.66,22.66,0,0,0-1.58-8.12l-18.07,2.08Z"/>
    <path class="cls-8" d="M146.13,6.18,133.72,16.54l18.07-2.08A22.48,22.48,0,0,0,146.13,6.18Z"/>
    <path class="cls-12" d="M114.73,110.57a8.64,8.64,0,0,0,6.9-8.29l1.17-37.9L123,56a8.65,8.65,0,0,0-12.49-8L103,51.75l-34,17a8.63,8.63,0,0,0-4.62,9.76,8.43,8.43,0,0,0,2.8,4.44l.74.47a21.72,21.72,0,0,0,12.89,3.26,21.4,21.4,0,0,1,19.57,12.47,21.75,21.75,0,0,0,8.4,10.31l.74.47A8.49,8.49,0,0,0,114.73,110.57Z"/>
</svg>