<svg xmlns="http://www.w3.org/2000/svg" width="203.027" height="209.987" viewBox="0 0 203.027 209.987">
  <path id="icon" d="M988.905,2869.987a4.58,4.58,0,0,1-4.58-4.58l0-71.187c-.193-7.549-.865-75.814,34.248-112.027a72.379,72.379,0,0,1,49.644-22.185,4.432,4.432,0,0,1,3.37,1.269,4.586,4.586,0,0,1,1.413,3.31v29.879a4.576,4.576,0,0,1-4.256,4.57,32.9,32.9,0,0,0-22.152,10.275c-22.605,23.238-23.314,75.343-23.321,81.214h35.91a4.581,4.581,0,0,1,4.579,4.58v70.3a4.58,4.58,0,0,1-4.579,4.58Zm-114.313,0a4.58,4.58,0,0,1-4.58-4.58l0-71.187c-.193-7.549-.868-75.814,34.248-112.027a72.388,72.388,0,0,1,49.642-22.185,4.464,4.464,0,0,1,3.371,1.271,4.577,4.577,0,0,1,1.413,3.307v29.879a4.576,4.576,0,0,1-4.256,4.57,32.894,32.894,0,0,0-22.152,10.275c-22.607,23.238-23.317,75.343-23.324,81.214h35.915a4.582,4.582,0,0,1,4.58,4.58v70.3a4.58,4.58,0,0,1-4.58,4.58Z" transform="translate(-869.972 -2660)" fill="#64aded" opacity="0.34"/>
</svg>
