<svg id="b" xmlns="http://www.w3.org/2000/svg" width="58.92" height="58.992" viewBox="0 0 58.92 58.992">
  <g id="c">
    <g id="Group_2491" data-name="Group 2491">
      <path id="Path_3528" data-name="Path 3528" d="M122.274,141.913a36.323,36.323,0,0,1-5.467-1,31.125,31.125,0,0,1-4.057-1.439c-.378-.164-.47-.3-.152-.644a6.73,6.73,0,0,0,1.363-2.118c.177-.45.4-.447.787-.286a24.837,24.837,0,0,0,9.9,1.974,25.907,25.907,0,0,0,25.424-21.439,25.584,25.584,0,0,0-2.57-16.628.776.776,0,0,1,.343-1.161c.6-.343,1.218-.654,1.791-1.034.467-.31.679-.166.916.283a29.582,29.582,0,0,1-21.413,43.188c-.716.118-1.436.2-2.154.306h-4.715Z" transform="translate(-95.137 -82.923)"/>
      <path id="Path_3529" data-name="Path 3529" d="M31.738,0c1.383.187,2.77.341,4.134.658,1.234.286,2.443.65,3.641,1.055.458.155.527.341.206.724a6.221,6.221,0,0,0-1.134,2.057c-.167.505-.375.6-.869.421a24.206,24.206,0,0,0-7.944-1.383,24.835,24.835,0,0,0-9.663,1.745A25.677,25.677,0,0,0,5.05,20.74a24.738,24.738,0,0,0-1.472,7.246A25.651,25.651,0,0,0,5.953,40.459c.157.336.164.55-.221.727-.783.359-1.556.747-2.318,1.148-.347.183-.51.077-.662-.249A29.5,29.5,0,0,1,.2,33.394C.131,32.9.066,32.408,0,31.915V27.076c.194-1.151.272-2.32.539-3.46Q4.694,5.97,22.062.886A32.852,32.852,0,0,1,27.024,0Z"/>
      <path id="Path_3530" data-name="Path 3530" d="M90.948,118.625c-3.3,0-6.59.031-9.884-.009a9.079,9.079,0,0,1-8.122-4.483,9.206,9.206,0,0,1,6.194-13.843.842.842,0,0,0,.79-.79,8.364,8.364,0,0,1,7.624-6.718,8.28,8.28,0,0,1,8.486,6.05.688.688,0,0,0,.544.568,6.453,6.453,0,0,1,4.7,4.168c.149.39.43.444.756.489a7.283,7.283,0,0,1-.115,14.476c-3.366.234-6.739.045-10.11.092C91.522,118.63,91.235,118.625,90.948,118.625Z" transform="translate(-60.591 -78.524)"/>
      <path id="Path_3531" data-name="Path 3531" d="M45.41,295.28a5.073,5.073,0,1,1-5.091,5.026A5.086,5.086,0,0,1,45.41,295.28Z" transform="translate(-34.125 -249.919)"/>
      <path id="Path_3532" data-name="Path 3532" d="M273.614,25.335a5.073,5.073,0,0,1-.006-10.145,5.073,5.073,0,1,1,.006,10.145Z" transform="translate(-227.286 -12.856)"/>
    </g>
  </g>
</svg>
