<svg id="b" xmlns="http://www.w3.org/2000/svg" width="50.76" height="50.76" viewBox="0 0 50.76 50.76">
  <g id="c" transform="translate(0 0)">
    <g id="Group_2477" data-name="Group 2477">
      <path id="Path_3503" data-name="Path 3503" d="M399.96,6.053c-.166,1.273-.285,2.552-.563,3.808-.146.659-.335,1.309-.462,1.973-.088.46-.329.527-.739.458a12.247,12.247,0,0,1-5.93-2.78A12.878,12.878,0,0,1,387.7,2.02c-.131-.667-.108-.7.553-.892A28.172,28.172,0,0,1,393.924.071a1.809,1.809,0,0,0,.286-.064c1.817,0,3.635.006,5.452-.007.248,0,.305.057.3.3C399.955,2.22,399.96,4.137,399.96,6.053Z" transform="translate(-349.207 0)" fill="#fff"/>
      <path id="Path_3504" data-name="Path 3504" d="M-.009,171.76A4.3,4.3,0,0,1,.8,170.7c1.675-1.617,3.213-3.378,5.023-4.852a11.005,11.005,0,0,1,5.205-2.4,5.023,5.023,0,0,1,2.211.068c.356.1.45.26.2.594a81.556,81.556,0,0,0-5.7,8.694c-.117.2-.233.392-.532.344a11.8,11.8,0,0,0-4.461.361c-.225.051-.449.111-.675.157a1.594,1.594,0,0,1-2.08-1.019v-.892Z" transform="translate(0.01 -147.169)" fill="#fff"/>
      <path id="Path_3505" data-name="Path 3505" d="M246.42,390.364A1.608,1.608,0,0,1,245.4,388.4a40.652,40.652,0,0,0,.445-4.13c0-.1.048-.208.018-.294-.285-.822.2-1.16.834-1.515a77.6,77.6,0,0,0,8.045-5.243c.519-.384.624-.343.734.3a8.029,8.029,0,0,1-.789,4.567,12.386,12.386,0,0,1-2.805,3.983c-1.227,1.2-2.434,2.424-3.645,3.642a2.986,2.986,0,0,1-.922.655h-.892Z" transform="translate(-221.043 -339.604)" fill="#fff"/>
      <path id="Path_3506" data-name="Path 3506" d="M121.381,49.952a8.24,8.24,0,0,0-2.9.568.61.61,0,0,1-.747-.161q-1.366-1.4-2.768-2.768a.492.492,0,0,1-.088-.724,67.267,67.267,0,0,1,11-13.847,43.113,43.113,0,0,1,12.431-8.45c.672-.292.656-.3.826.4A16.131,16.131,0,0,0,146.9,35.281a13.125,13.125,0,0,0,4.61,1.728c.421.071.462.234.312.6a38.192,38.192,0,0,1-5.76,9.553,63.409,63.409,0,0,1-16.2,13.827,1.23,1.23,0,0,1-1.675-.181c-.794-.794-1.578-1.6-2.388-2.376a.707.707,0,0,1-.2-.869,7.193,7.193,0,0,0,.387-4.273,4.341,4.341,0,0,0-4.61-3.336Zm14.691-17.26a7.364,7.364,0,1,0,7.342,7.369,7.33,7.33,0,0,0-7.342-7.369Z" transform="translate(-103.383 -21.967)" fill="#fff"/>
      <path id="Path_3507" data-name="Path 3507" d="M71,310.878c1.493-.013,2.185.638,2.148,1.935a5.756,5.756,0,0,1-1.637,3.935,44.013,44.013,0,0,1-9.247,7.558,9.2,9.2,0,0,1-1.1.557,1.393,1.393,0,0,1-1.6-.319,1.414,1.414,0,0,1-.376-1.632,16.967,16.967,0,0,1,1.753-3.039,50.463,50.463,0,0,1,6.054-7.117A6.4,6.4,0,0,1,71,310.879Z" transform="translate(-53.213 -280.062)" fill="#fff"/>
      <path id="Path_3508" data-name="Path 3508" d="M163.19,394.027a.432.432,0,0,1,.2-.3c1.356-1.182,2.675-2.4,3.933-3.687a.224.224,0,0,1,.375,0q1.032,1.033,2.065,2.065c.161.16.19.307-.04.429-1.487.786-2.928,1.663-4.484,2.308a1.631,1.631,0,0,1-1.959-.665c-.035-.054-.064-.112-.085-.149Z" transform="translate(-147.013 -351.285)" fill="#fff"/>
      <path id="Path_3509" data-name="Path 3509" d="M72.731,287.693a1.923,1.923,0,0,1,.241-.849c.692-1.348,1.394-2.692,2.082-4.042.156-.3.3-.4.576-.115.595.617,1.205,1.218,1.817,1.819.182.179.232.3.009.514-1.19,1.163-2.324,2.382-3.408,3.646-.485.565-.584.552-1.012-.051a1.563,1.563,0,0,1-.305-.922Z" transform="translate(-65.52 -254.511)" fill="#fff"/>
      <path id="Path_3510" data-name="Path 3510" d="M288.462,145.881a4.493,4.493,0,1,1,4.763-4.271,4.456,4.456,0,0,1-4.763,4.271Z" transform="translate(-256.056 -123.329)" fill="#fff"/>
    </g>
  </g>
</svg>
