<svg id="b" xmlns="http://www.w3.org/2000/svg" width="58.953" height="59.002" viewBox="0 0 58.953 59.002">
  <g id="c" transform="translate(0)">
    <g id="Group_2495" data-name="Group 2495">
      <path style="fill: #000;" id="Path_3540" data-name="Path 3540" d="M68.642,252.25c-.014-.21-.038-.419-.038-.63q0-9.763-.014-19.528a.976.976,0,0,1,.624-1.012,13.5,13.5,0,0,1,6.527-1.773,10.791,10.791,0,0,1,5.328,1.429,10.287,10.287,0,0,0,5.537,1.435c2.836-.035,5.672-.014,8.509-.006a3.993,3.993,0,0,1,4.04,3.575,4.048,4.048,0,0,1-3.229,4.5,4.868,4.868,0,0,1-.971.066q-4.973.007-9.945,0a3.1,3.1,0,0,0-.965.12,1.656,1.656,0,0,0,0,3.135,2.775,2.775,0,0,0,.85.124c3.374,0,6.746.021,10.119-.008a7.452,7.452,0,0,0,7.518-7.65,1.109,1.109,0,0,0-.017-.344c-.341-.943.081-1.464.865-1.985,2.22-1.473,4.363-3.063,6.566-4.561a4.486,4.486,0,0,1,6.95,2.782,4.3,4.3,0,0,1-1.249,4.172c-2.891,2.8-5.812,5.578-8.726,8.359-1.47,1.4-2.907,2.847-4.44,4.18a14.8,14.8,0,0,1-8.09,3.553,1.269,1.269,0,0,0-.218.066H68.642Z" transform="translate(-58.053 -193.259)" fill="#fff"/>
      <path style="fill: #000;" id="Path_3541" data-name="Path 3541" d="M135.041,0a14.321,14.321,0,0,1,5.853,2.237,13.334,13.334,0,0,1,2.433,19.883,21.2,21.2,0,0,1-1.57,1.518,4.231,4.231,0,0,0-1.5,3c-.017.338-.143.479-.485.476q-2.1-.014-4.2,0c-.358,0-.459-.166-.459-.495q.007-5.04,0-10.079a.943.943,0,0,1,.359-.688c.854-.856,1.711-1.707,2.556-2.57a1.6,1.6,0,0,0,.4-1.751,1.567,1.567,0,0,0-1.372-1.075,1.636,1.636,0,0,0-1.4.522c-.625.622-1.257,1.24-1.868,1.876-.26.27-.453.269-.711,0-.584-.61-1.184-1.2-1.787-1.793a1.666,1.666,0,1,0-2.338,2.347q1.21,1.231,2.441,2.441a1.123,1.123,0,0,1,.361.865c-.009,3.244-.017,6.489,0,9.733,0,.542-.186.688-.7.676-1.264-.029-2.529-.023-3.793,0-.441.008-.645-.1-.674-.595a4.154,4.154,0,0,0-1.572-2.968,13.955,13.955,0,0,1-3.486-4.381A13.331,13.331,0,0,1,131.546.074,2.507,2.507,0,0,0,131.821,0Z" transform="translate(-101.683)" fill="#fff"/>
      <path style="fill: #000;" id="Path_3542" data-name="Path 3542" d="M.009,227.355a2.01,2.01,0,0,1,2.086-1.2c1.108.048,2.22,0,3.329.015a1.7,1.7,0,0,1,1.748,1.745q.012,11.072,0,22.145a3.213,3.213,0,0,1-.037.341c-2.243,0-4.484-.009-6.727.011C.067,250.412,0,250.34,0,250q.018-11.319.009-22.639Z" transform="translate(0 -191.407)" fill="#fff"/>
      <path style="fill: #000;" id="Path_3543" data-name="Path 3543" d="M169.115,198.438c2.029,0,4.059.015,6.088-.009.524-.006.691.161.693.688.009,2.35-1.118,3.982-3.149,4.5a3.414,3.414,0,0,1-.854.089c-1.876,0-3.753.009-5.629,0a4.038,4.038,0,0,1-4.008-3.986c-.017-1.49-.137-1.263,1.229-1.272,1.876-.012,3.753,0,5.629,0Z" transform="translate(-137.321 -167.946)" fill="#fff"/>
      <path style="fill: #000;" id="Path_3544" data-name="Path 3544" d="M68.056,19.973a1.589,1.589,0,0,1-.9-.246c-.965-.553-1.936-1.094-2.887-1.67a1.781,1.781,0,1,1,1.762-3.094q1.514.825,2.983,1.731a1.768,1.768,0,0,1-.962,3.28Z" transform="translate(-53.594 -12.447)" fill="#fff"/>
      <path style="fill: #000;" id="Path_3545" data-name="Path 3545" d="M309.246,19.88a1.789,1.789,0,0,1-1.784-1.189,1.692,1.692,0,0,1,.581-1.962,27.1,27.1,0,0,1,3.432-1.982,1.716,1.716,0,0,1,2.16.7,1.693,1.693,0,0,1-.327,2.246,23.285,23.285,0,0,1-3.619,2.106,1.341,1.341,0,0,1-.441.083Z" transform="translate(-260.143 -12.355)" fill="#fff"/>
      <path style="fill: #000;" id="Path_3546" data-name="Path 3546" d="M67.967,123.51a1.775,1.775,0,0,1,1.79,1.18,1.7,1.7,0,0,1-.614,2,28.033,28.033,0,0,1-3.384,1.949,1.728,1.728,0,0,1-2.165-.687,1.7,1.7,0,0,1,.359-2.287,25.232,25.232,0,0,1,3.576-2.071,1.351,1.351,0,0,1,.439-.084Z" transform="translate(-53.585 -104.536)" fill="#fff"/>
      <path style="fill: #000;" id="Path_3547" data-name="Path 3547" d="M312.089,128.735a1.639,1.639,0,0,1-.942-.26c-.948-.544-1.9-1.077-2.837-1.641a1.783,1.783,0,1,1,1.765-3.1c1.008.553,2,1.128,2.982,1.734a1.737,1.737,0,0,1,.75,2.009,1.764,1.764,0,0,1-1.717,1.254Z" transform="translate(-260.121 -104.503)" fill="#fff"/>
      <path style="fill: #000;" id="Path_3548" data-name="Path 3548" d="M56.451,74.724c.575,0,1.149-.011,1.724,0a1.764,1.764,0,0,1,.032,3.527q-1.781.03-3.562,0a1.764,1.764,0,0,1,.025-3.526c.593-.015,1.187,0,1.78,0Z" transform="translate(-44.815 -63.241)" fill="#fff"/>
      <path style="fill: #000;" id="Path_3549" data-name="Path 3549" d="M318.408,78.214c-.593,0-1.187.017-1.78,0a1.763,1.763,0,0,1,0-3.521q1.809-.037,3.619,0a1.763,1.763,0,0,1,0,3.523c-.611.021-1.226,0-1.839,0Z" transform="translate(-266.567 -63.199)" fill="#fff"/>
    </g>
  </g>
</svg>
