<svg id="b" xmlns="http://www.w3.org/2000/svg" width="56.439" height="52.904" viewBox="0 0 56.439 52.904">
  <g id="c" transform="translate(0)">
    <g id="Group_2496" data-name="Group 2496">
      <path id="Path_3550" data-name="Path 3550" d="M88.216,237.569c-2.817,0-5.635.051-8.451-.011a24.281,24.281,0,0,1-18.435-8.607.652.652,0,0,1-.026-.988c1.318-1.722,2.608-3.464,3.911-5.2.4-.527.424-.525.8,0a16.979,16.979,0,0,0,10.669,6.961,15.807,15.807,0,0,0,3.254.312q8.853-.012,17.708.009c.588,0,.773-.177.739-.756-.046-.765-.014-1.536-.009-2.3,0-.149-.055-.344.088-.429.183-.106.315.078.445.177q3.383,2.535,6.762,5.077c.736.553,1.466,1.114,2.211,1.654.344.249.347.43,0,.69q-4.514,3.376-9.018,6.769c-.115.088-.238.252-.4.16s-.089-.278-.089-.426c0-.825-.026-1.651.006-2.476.018-.478-.146-.63-.622-.627-3.182.017-6.363.009-9.543.008Z" transform="translate(-51.706 -188.21)"/>
      <path id="Path_3551" data-name="Path 3551" d="M2.928,70.283c.4,0,.807-.023,1.207,0,.45.032.595-.152.611-.6a24.689,24.689,0,0,1,6.086-15.551c.261-.3.436-.272.694-.012,1.513,1.525,3.026,3.049,4.559,4.555.33.326.267.555.008.869a16.711,16.711,0,0,0-3.547,7.583,24.361,24.361,0,0,0-.3,2.453c-.046.51.1.733.659.7.822-.043,1.647-.014,2.472-.008.143,0,.332-.06.4.131.052.143-.074.247-.152.353Q12.214,75.331,8.8,79.9c-.227.306-.384.287-.605-.009Q4.806,75.34,1.405,70.8c-.088-.117-.237-.24-.155-.4s.269-.112.415-.115c.421-.008.843,0,1.264,0Z" transform="translate(-1.038 -45.641)"/>
      <path id="Path_3552" data-name="Path 3552" d="M246.254,121.962c-.959,0-1.916,0-2.874,0-.181,0-.449.1-.522-.1-.084-.23.209-.28.352-.376a17.091,17.091,0,0,0,7.331-10.626,20.979,20.979,0,0,0,.409-3.017c.041-.487-.157-.641-.625-.627-.823.026-1.648.009-2.472,0-.147,0-.33.046-.426-.1-.108-.169.058-.283.144-.4q3.392-4.542,6.787-9.082c.258-.347.422-.338.681.008q3.351,4.5,6.719,8.988c.1.132.281.272.2.447-.1.2-.338.137-.522.138-.785.008-1.572.02-2.357,0-.435-.012-.607.134-.625.588a24.721,24.721,0,0,1-2.049,9.151c-.336.753-.739,1.475-1.094,2.218-.206.433-.421.5-.819.18-.833-.677-1.705-1.306-2.552-1.965a1.293,1.293,0,0,0-1.439-.253,1.248,1.248,0,0,0-.639,1.307c.015.922.006,1.843,0,2.764,0,.74-.02.759-.79.76-.939,0-1.877,0-2.816,0Z" transform="translate(-205.536 -82.415)"/>
      <path id="Path_3553" data-name="Path 3553" d="M177.306,0a24.605,24.605,0,0,1,18.468,8.443c.625.7.614.708.041,1.472-1.254,1.671-2.516,3.337-3.755,5.02-.3.409-.456.373-.734-.023a16.838,16.838,0,0,0-11.916-7.225,18.03,18.03,0,0,0-2.118-.134c-.378-.008-.553-.126-.591-.516q-.316-3.231-.664-6.46c-.037-.347.1-.5.429-.525l.84-.052Z" transform="translate(-148.989)"/>
      <path id="Path_3554" data-name="Path 3554" d="M91.181,9.672c.032.433-.375.383-.638.435a16.332,16.332,0,0,0-4.626,1.681,14.656,14.656,0,0,0-2.542,1.773c-.37.32-.631.363-1.006-.028-1.459-1.522-2.945-3.02-4.438-4.51-.309-.309-.3-.49.034-.776a24.63,24.63,0,0,1,11.66-5.638c.845-.163.85-.126.926.719.184,2.023.392,4.045.59,6.067.008.077.022.152.04.278Z" transform="translate(-65.77 -2.143)"/>
      <path id="Path_3555" data-name="Path 3555" d="M16.908,279.769H.841c-.825,0-.831,0-.831-.833,0-2,.015-3.99-.011-5.985-.008-.559.2-.728.737-.722,2.048.023,4.1.012,6.145.006a1.063,1.063,0,0,1,.908.37,26.914,26.914,0,0,0,8.69,6.766C16.624,279.443,16.817,279.465,16.908,279.769Z" transform="translate(0.001 -230.409)"/>
    </g>
  </g>
</svg>
