<svg id="c" xmlns="http://www.w3.org/2000/svg" width="57.38" height="59.3" viewBox="0 0 57.38 59.3">
  <g id="Group_2492" data-name="Group 2492">
    <path id="Path_3533" data-name="Path 3533" d="M19.861,109.858c-.971-.73-1.031-1.439-.178-2.329a11.054,11.054,0,0,0,2.569-4.154c.21-.627.2-.644-.49-.644q-8.761,0-17.524,0A4.172,4.172,0,0,1,.082,99.411,3.765,3.765,0,0,1,0,98.579Q0,82.4,0,66.219a4.173,4.173,0,0,1,4.142-4.2c2.612-.028,5.225-.017,7.838,0a2.448,2.448,0,0,1,.836,4.748,2.554,2.554,0,0,1-.936.132c-2.109,0-4.217.012-6.326-.009-.492,0-.685.108-.684.648q.023,12.43,0,24.858c0,.518.161.67.671.67q23.177-.016,46.355,0c.485,0,.645-.144.644-.639q-.018-12.457,0-24.913c0-.51-.178-.627-.653-.622-2.128.022-4.255.014-6.381.008A2.377,2.377,0,0,1,43,64.521a2.411,2.411,0,0,1,2.506-2.506c2.37-.012,4.741,0,7.11,0,2.6,0,3.91.934,4.758,3.389V99.447c-1.082,2.585-2.138,3.287-4.945,3.287H35.694c-.754,0-.783.034-.518.76a11.431,11.431,0,0,0,2.555,4.037,1.34,1.34,0,0,1-.178,2.33h-17.7Z" transform="translate(0.002 -50.563)"/>
    <path id="Path_3534" data-name="Path 3534" d="M134.841,8.238a1.435,1.435,0,0,1-.616,1.108c-.533.409-1.062.825-1.6,1.22a.717.717,0,0,0-.341.708,3.163,3.163,0,0,1,.011.893,1.287,1.287,0,0,0,.72,1.507,9.94,9.94,0,0,1,1.254.939,1.235,1.235,0,0,1,.364,1.734q-.9,1.613-1.848,3.2a1.246,1.246,0,0,1-1.722.57c-.644-.249-1.278-.521-1.91-.8a.71.71,0,0,0-.78.072,3.787,3.787,0,0,1-.9.553c-.607.212-.728.664-.774,1.217-.045.538-.124,1.074-.209,1.607a1.244,1.244,0,0,1-1.3,1.212q-1.873.062-3.75,0a1.243,1.243,0,0,1-1.309-1.2c-.109-.7-.2-1.4-.286-2.1a.665.665,0,0,0-.439-.588,1.57,1.57,0,0,1-.485-.273,1.738,1.738,0,0,0-2.321-.137,6.594,6.594,0,0,1-1.186.495,1.192,1.192,0,0,1-1.509-.516q-1.014-1.675-1.96-3.392a1.2,1.2,0,0,1,.39-1.636c.538-.433,1.094-.842,1.65-1.252a.77.77,0,0,0,.35-.71,13.356,13.356,0,0,1,.02-1.509.577.577,0,0,0-.3-.552c-.538-.4-1.08-.8-1.608-1.215a1.28,1.28,0,0,1-.392-1.943q.855-1.509,1.733-3.006a1.3,1.3,0,0,1,1.85-.6c.535.22,1.066.45,1.6.673a3.351,3.351,0,0,0,.469.181A4.1,4.1,0,0,0,119.822,3.3c.114-.717.2-1.441.309-2.158A1.218,1.218,0,0,1,121.5-.025q1.79-.009,3.582,0a1.229,1.229,0,0,1,1.4,1.2c.089.513.14,1.034.21,1.55.028.2.051.407.094.607A3.188,3.188,0,0,0,129.146,4.6c.621-.255,1.237-.525,1.857-.779a1.289,1.289,0,0,1,1.805.6c.607,1.028,1.2,2.066,1.794,3.1a1.664,1.664,0,0,1,.235.714Zm-6.848,3.776a4.688,4.688,0,1,0-4.724,4.658,4.7,4.7,0,0,0,4.724-4.658Z" transform="translate(-94.593 0.03)"/>
  </g>
</svg>
