<svg id="b" xmlns="http://www.w3.org/2000/svg" width="45.588" height="45.077" viewBox="0 0 45.588 45.077">
  <g id="c" transform="translate(0 0)">
    <g id="Group_2479" data-name="Group 2479">
      <path id="Path_3525" data-name="Path 3525" d="M257.711,6V45.037c-.163.01-.324.029-.487.029q-7.914,0-15.83,0c-.651,0-.664-.011-.664-.679V.591c0-.681.03-.7.675-.468Q248,2.48,254.588,4.842c1.045.376,2.108.7,3.123,1.157Zm-6.371,12.833c0,.592.007,1.185,0,1.777-.006.305.124.425.424.421q.975-.016,1.951,0c.311,0,.414-.14.412-.434q-.011-1.733,0-3.465c0-.3-.127-.431-.424-.429-.636.006-1.272.01-1.906,0-.352-.007-.466.156-.457.488.015.548,0,1.1,0,1.643Zm0,10.1c0,.564.012,1.129,0,1.692-.01.34.111.487.463.478.621-.017,1.245-.017,1.867,0,.354.01.465-.143.461-.48q-.018-1.692,0-3.384c0-.318-.112-.463-.441-.458q-.955.018-1.911,0c-.33-.006-.444.143-.437.46.013.563,0,1.128,0,1.692Zm2.782,10.145c0-.564-.007-1.129,0-1.693.006-.3-.108-.436-.417-.43q-.979.016-1.956,0c-.311,0-.416.138-.414.434.007,1.143.009,2.288,0,3.431,0,.318.112.465.44.46q.955-.016,1.912,0c.33,0,.443-.149.437-.463-.012-.579,0-1.159,0-1.737ZM244.3,8.57c0,.593.007,1.185,0,1.778-.006.323.133.453.453.447q.909-.016,1.818,0c.311,0,.466-.108.463-.437q-.011-1.777,0-3.554c0-.3-.133-.427-.43-.423-.62.008-1.242.011-1.862,0-.33-.006-.444.146-.44.459.01.578,0,1.155,0,1.733ZM247.026,18.9c0-.578-.006-1.155,0-1.733,0-.309-.109-.472-.437-.468-.62.008-1.242.006-1.862,0-.294,0-.434.122-.433.424,0,1.155.007,2.31,0,3.465,0,.329.141.444.458.438.606-.013,1.212-.015,1.818,0,.358.01.467-.157.46-.485-.012-.548,0-1.1,0-1.643Zm0,10.032c0-.579,0-1.157,0-1.737,0-.273-.114-.412-.4-.411-.637,0-1.274.006-1.911,0-.305,0-.422.138-.421.434q.009,1.736,0,3.474c0,.275.112.411.4.409.637-.006,1.274-.008,1.911,0,.307,0,.425-.137.422-.431-.007-.579,0-1.157,0-1.737Zm0,10.175c0-.564-.007-1.129,0-1.693,0-.313-.108-.467-.441-.46-.623.013-1.245.011-1.868,0-.305,0-.427.128-.424.427q.009,1.738,0,3.476c0,.307.144.424.437.421q.934-.011,1.868,0c.3,0,.429-.135.427-.433-.006-.579,0-1.159,0-1.737Z" transform="translate(-212.123 0.01)" fill="#fff"/>
      <path id="Path_3526" data-name="Path 3526" d="M17.029,22.578V43.965c0,.163,0,.327,0,.49-.008.636-.021.651-.648.651H.683c-.669,0-.671,0-.671-.657Q.01,25.536,0,6.621A.738.738,0,0,1,.591,5.8Q8.446,3.013,16.291.192c.73-.261.737-.258.737.509q0,6.438,0,12.877v9ZM6.417,18.919c0-.563-.011-1.125,0-1.689.008-.332-.1-.5-.455-.491-.636.012-1.272.008-1.906,0-.3,0-.429.122-.427.427q.011,1.733,0,3.465c0,.332.139.443.455.437.62-.013,1.242-.015,1.862,0,.341.01.484-.115.473-.465-.017-.562,0-1.125,0-1.687ZM3.636,28.96c0,.594,0,1.187,0,1.781,0,.282.115.405.4.4q1-.011,2,0c.291,0,.387-.143.386-.415,0-1.157-.007-2.316,0-3.474,0-.3-.119-.433-.422-.428-.637.008-1.274.013-1.911,0-.358-.008-.465.156-.455.488.015.549,0,1.1,0,1.648Zm0,10.188c0,.564.011,1.129,0,1.693-.01.337.112.492.462.485q.934-.02,1.868,0c.352.007.463-.15.46-.486q-.018-1.693,0-3.387c0-.318-.107-.462-.438-.455q-.955.021-1.912,0c-.333-.007-.446.139-.437.456.013.564,0,1.129,0,1.693Zm9.823-30.5c0-.607,0-1.214,0-1.822,0-.275-.112-.411-.4-.409-.636.006-1.272.007-1.906,0-.3,0-.429.127-.428.427q.007,1.777,0,3.554c0,.294.116.437.421.434.62-.007,1.242-.01,1.862,0,.321.006.455-.131.449-.452C13.453,9.806,13.46,9.228,13.459,8.651Zm0,10.3c0-.592,0-1.185,0-1.777,0-.3-.128-.433-.427-.43-.62.006-1.242.007-1.862,0-.324,0-.446.15-.443.462q.009,1.711,0,3.421c0,.322.132.452.453.446.606-.013,1.212-.015,1.818,0,.352.01.473-.143.465-.478-.013-.548,0-1.1,0-1.643Zm-2.728,10c0,.579.006,1.159,0,1.737,0,.31.1.468.438.462.623-.013,1.245-.011,1.867,0,.3,0,.429-.122.428-.424q-.009-1.738,0-3.475c0-.307-.14-.423-.435-.419q-.934.012-1.867,0c-.3,0-.433.127-.429.428.006.564,0,1.129,0,1.692Zm0,10.171c0,.579.006,1.159,0,1.737,0,.31.107.473.438.468.623-.01,1.245-.007,1.868,0,.3,0,.428-.132.427-.431q-.009-1.738,0-3.476c0-.308-.138-.421-.435-.416q-.934.014-1.868,0c-.3,0-.433.125-.429.425.007.564,0,1.129,0,1.693Z" transform="translate(0 -0.031)" fill="#fff"/>
      <path id="Path_3527" data-name="Path 3527" d="M172.4,93.151V110.44a.673.673,0,0,1-.764.757q-2.356,0-4.714,0c-.587,0-.617-.026-.617-.589q0-17.49-.008-34.979c0-.449.15-.594.593-.589,1.63.019,3.261.006,4.892.008.594,0,.618.025.618.638q0,8.734,0,17.467Z" transform="translate(-146.538 -66.121)" fill="#fff"/>
    </g>
  </g>
</svg>
