<svg id="b" xmlns="http://www.w3.org/2000/svg" width="50.568" height="58.991" viewBox="0 0 50.568 58.991">
  <g id="c" transform="translate(0)">
    <g id="Group_2493" data-name="Group 2493">
      <path id="Path_3535" data-name="Path 3535" d="M99.669,153.484a5.669,5.669,0,0,1-3.747-3.3c-2.51-5.074-5.082-10.119-7.637-15.172a2.7,2.7,0,0,1-.329-1.992,2.258,2.258,0,0,1,1.91-1.771,2.182,2.182,0,0,1,2.355,1.1c.619,1.038,1.178,2.111,1.765,3.168.094.167.184.336.29.5a.9.9,0,0,0,1.642-.376,3.542,3.542,0,0,0,.026-.688q0-10.337,0-20.674a2.447,2.447,0,0,1,2.012-2.573,2.164,2.164,0,0,1,2.655,2.118q.007,7.141,0,14.282c0,.21-.008.422.008.633a.859.859,0,0,0,.88.871.842.842,0,0,0,.888-.859c.028-.787.006-1.575.015-2.361a2.208,2.208,0,1,1,4.412-.038c.028,1.67.008,3.34.009,5.01,0,.21,0,.422,0,.633.029.595.344.943.857.956a.9.9,0,0,0,.922-.965c.022-1.055.008-2.111.009-3.168a2.293,2.293,0,0,1,1.994-2.524,2.694,2.694,0,0,1,2.777,2.04,4.58,4.58,0,0,1,.112,1.085q-.007,2.708,0,5.414c0,.736.3,1.106.865,1.117s.922-.4.926-1.141c.008-1,.051-2-.009-2.994a2.271,2.271,0,0,1,2.146-2.5,2.527,2.527,0,0,1,2.535,2.466c.006.154,0,.307,0,.461q0,5.616,0,11.23a9.77,9.77,0,0,1-8.162,9.962.94.94,0,0,0-.161.061H99.668Z" transform="translate(-74.379 -94.493)"/>
      <path id="Path_3536" data-name="Path 3536" d="M41.532,0a5.254,5.254,0,0,1,3.6,2.89,5.054,5.054,0,0,1-1.211,5.9A4.906,4.906,0,0,1,38,9.371a.853.853,0,0,0-1.189.1q-3.4,2.8-6.842,5.55a.619.619,0,0,0-.212.917,5.763,5.763,0,0,1,.659,3c-.022.5.154.625.568.708,2.275.456,4.547.928,6.821,1.395,1.071.22,2.146.422,3.209.677a.727.727,0,0,0,1-.485,4.43,4.43,0,0,1,6.57-1.813,4.529,4.529,0,0,1-2.149,8.254A4.418,4.418,0,0,1,41.9,24.827a1.243,1.243,0,0,0-1.065-.925Q35.609,22.87,30.4,21.762a.631.631,0,0,0-.83.37A5.687,5.687,0,0,1,28.6,23.48c-.1.106-.2.287-.364.23-.183-.063-.111-.264-.111-.407-.006-1.306,0-2.612-.006-3.916a3.965,3.965,0,0,0-3.432-4.049A4.3,4.3,0,0,0,19.794,18.7a21.373,21.373,0,0,0-.117,3.561c-.017.479,0,.96-.008,1.439,0,.292-.137.34-.355.16a4.907,4.907,0,0,1-1.058-1.209c-.2-.316-.372-.355-.694-.181q-3.6,1.938-7.216,3.847a.545.545,0,0,0-.316.651,5.071,5.071,0,0,1-4.311,5.864A5.082,5.082,0,0,1,2.7,23.307a4.917,4.917,0,0,1,5.845.845.7.7,0,0,0,.988.126q3.6-1.943,7.216-3.845a.59.59,0,0,0,.37-.717,6.359,6.359,0,0,1,.472-3.493.621.621,0,0,0-.151-.8q-2.691-2.726-5.352-5.48a.824.824,0,0,0-.911-.255,4.3,4.3,0,0,1-4.5-1.315A4.285,4.285,0,0,1,5.848,3.6,4.277,4.277,0,0,1,9.807.808a4.212,4.212,0,0,1,4,2.151A4.3,4.3,0,0,1,13.8,7.7a.667.667,0,0,0,.109,1c1.628,1.63,3.232,3.283,4.83,4.944.267.278.426.3.74.035a6.638,6.638,0,0,1,8.124-.307.672.672,0,0,0,.985-.038c2.314-1.9,4.646-3.781,6.974-5.662.27-.218.442-.4.3-.813A5.053,5.053,0,0,1,39.356.081C39.428.06,39.5.028,39.57,0h1.959Z" transform="translate(0.004)"/>
    </g>
  </g>
</svg>
