<svg id="b" xmlns="http://www.w3.org/2000/svg" width="45.095" height="45.077" viewBox="0 0 45.095 45.077">
  <g id="c" transform="translate(0 0)">
    <g id="Group_2478" data-name="Group 2478">
      <path id="Path_3511" data-name="Path 3511" d="M316.518,218.122a32.234,32.234,0,0,1-.581,3.683,24.417,24.417,0,0,1-1.225,3.71.55.55,0,0,1-.6.386q-4.332-.013-8.664,0c-.378,0-.457-.138-.391-.467a47.286,47.286,0,0,0,.763-6.273,6.039,6.039,0,0,0,.023-.746c-.021-.379.13-.511.515-.507,1.583.017,3.167.007,4.75.007h4.837c.19,0,.38.019.57.03v.176Z" transform="translate(-271.427 -193.897)" fill="#fff"/>
      <path id="Path_3512" data-name="Path 3512" d="M311.06,140.973a1.406,1.406,0,0,1-1.295.567c-3.339-.018-6.678-.009-10.016-.009-.6,0-.6,0-.6-.612a20.587,20.587,0,0,0-.237-4.067.6.6,0,0,1,.138-.489,7.929,7.929,0,0,1,1.181-1.235.493.493,0,0,1,.7-.04,6.322,6.322,0,0,0,3.036,1.047,6.1,6.1,0,0,0,3.848-.945.684.684,0,0,1,1.009.089,7.506,7.506,0,0,1,2.158,3.944c.023.115.053.227.08.34v1.408Z" transform="translate(-265.968 -120.092)" fill="#fff"/>
      <path id="Path_3513" data-name="Path 3513" d="M141.291,324.244a9.114,9.114,0,0,1-3.505-3.727,28.163,28.163,0,0,1-2.64-6.354c-.089-.3-.04-.426.3-.424,1.875.01,3.751.007,5.626,0,.249,0,.424.037.423.352q-.017,5.054-.021,10.108a.2.2,0,0,1-.009.043h-.176Z" transform="translate(-120.219 -279.169)" fill="#fff"/>
      <path id="Path_3514" data-name="Path 3514" d="M216.459,324.189c-.01-.145-.03-.291-.03-.437,0-3.165.005-6.329-.01-9.494,0-.43.1-.586.561-.58,1.816.025,3.633.015,5.45.007.32,0,.465.054.353.422a26.825,26.825,0,0,1-3.234,7.279,8.381,8.381,0,0,1-2.913,2.8h-.176Z" transform="translate(-192.572 -279.114)" fill="#fff"/>
      <path id="Path_3515" data-name="Path 3515" d="M139.75,119.746q-3.233,0-6.466,0c-1.062,0-1.52-.5-1.561-1.564a9.035,9.035,0,0,1,1.288-5.3,8.735,8.735,0,0,1,1.956-2.183.56.56,0,0,1,.742-.073,8.034,8.034,0,0,0,7.814.172c.843-.442.628-.443,1.289.086a7.607,7.607,0,0,1,2.984,5.876c.021.527.012,1.056.006,1.583a1.311,1.311,0,0,1-1.41,1.4c-2.214.007-4.427,0-6.641,0Z" transform="translate(-117.199 -98.306)" fill="#fff"/>
      <path id="Path_3516" data-name="Path 3516" d="M166.623,5.6a5.4,5.4,0,0,1-10.793-.053,5.4,5.4,0,1,1,10.793.053Z" transform="translate(-138.658 0)" fill="#fff"/>
      <path id="Path_3517" data-name="Path 3517" d="M6.108,217.888c1.6,0,3.193.012,4.79-.009.424-.006.547.141.562.553a44.043,44.043,0,0,0,.747,6.8c.122.629.116.636-.529.636-2.8,0-5.6-.009-8.394.01a.685.685,0,0,1-.745-.5,22.741,22.741,0,0,1-1.7-7.009c-.032-.407.107-.491.484-.487,1.6.018,3.193.008,4.79.008Z" transform="translate(-0.738 -193.87)" fill="#fff"/>
      <path id="Path_3518" data-name="Path 3518" d="M5.981,141.577c-1.817,0-3.633-.01-5.45.008-.4,0-.52-.113-.531-.52a7.312,7.312,0,0,1,2.447-5.882.448.448,0,0,1,.65-.053,6.319,6.319,0,0,0,6.894.122.822.822,0,0,1,1.079.1c.162.148.309.314.475.456a1.655,1.655,0,0,1,.55,1.75,15.511,15.511,0,0,0-.137,3.46c.014.448-.13.574-.572.569-1.8-.023-3.6-.01-5.406-.01Z" transform="translate(0.004 -120.138)" fill="#fff"/>
      <path id="Path_3519" data-name="Path 3519" d="M128.09,221.886c0,1.171-.01,2.344.007,3.515.006.358-.11.486-.476.484q-3.1-.02-6.195,0c-.338,0-.455-.138-.517-.445a51.28,51.28,0,0,1-.865-7c-.023-.385.071-.549.5-.545,2.358.018,4.715.014,7.073,0,.361,0,.486.117.48.479C128.08,219.542,128.09,220.714,128.09,221.886Z" transform="translate(-106.813 -193.88)" fill="#fff"/>
      <path id="Path_3520" data-name="Path 3520" d="M220.489,217.906c1.171,0,2.344.013,3.515-.008.389-.007.515.123.493.509a51.573,51.573,0,0,1-.869,7.05.452.452,0,0,1-.527.433q-3.1-.018-6.2,0c-.333,0-.466-.093-.465-.447q.018-3.537,0-7.075c0-.375.139-.473.489-.468,1.187.015,2.372.005,3.559.005Z" transform="translate(-192.59 -193.888)" fill="#fff"/>
      <path id="Path_3521" data-name="Path 3521" d="M45.194,323.672c-.161.083-.3-.007-.429-.047a22.7,22.7,0,0,1-12.5-9.507c-.063-.095-.175-.193-.126-.312.065-.153.229-.095.35-.095,2.621,0,5.243.005,7.865-.011.4,0,.489.2.574.509a35.567,35.567,0,0,0,2.138,5.8,20.392,20.392,0,0,0,1.859,3.18c.106.147.272.267.267.479Z" transform="translate(-28.588 -279.133)" fill="#fff"/>
      <path id="Path_3522" data-name="Path 3522" d="M267.615,313.7q1.955,0,3.911,0c.123,0,.29-.06.359.083s-.066.244-.137.348a22.743,22.743,0,0,1-12.341,9.444c-.084.026-.169.051-.252.075s-.217.1-.29.015c-.107-.122.041-.212.1-.3a28.331,28.331,0,0,0,4.085-8.989c.2-.682.193-.684.918-.684h3.647Z" transform="translate(-230.306 -279.122)" fill="#fff"/>
      <path id="Path_3523" data-name="Path 3523" d="M28.088,58.286a3.988,3.988,0,1,1,3.978-4A3.966,3.966,0,0,1,28.088,58.286Z" transform="translate(-21.435 -44.766)" fill="#fff"/>
      <path id="Path_3524" data-name="Path 3524" d="M321.106,54.293a3.988,3.988,0,1,1-3.992-3.983A3.965,3.965,0,0,1,321.106,54.293Z" transform="translate(-278.626 -44.766)" fill="#fff"/>
    </g>
  </g>
</svg>
