<svg id="b" xmlns="http://www.w3.org/2000/svg" width="46.987" height="40" viewBox="0 0 46.987 40">
  <g id="c" transform="translate(0 0)">
    <g id="Group_2476" data-name="Group 2476">
      <path id="Path_3497" data-name="Path 3497" d="M-.009,193.165a7.16,7.16,0,0,1,2.241-4.06,6.64,6.64,0,0,1,4.2-1.728c1.191-.053,2.385-.007,3.578-.023.387,0,.437.142.325.475a9.378,9.378,0,0,0-.431,3.026q.01,6.63,0,13.259a4.022,4.022,0,0,0,.127,1.318c.1.3-.048.393-.312.39a60.32,60.32,0,0,1-6.279-.1,3.857,3.857,0,0,1-3.225-2.6c-.079-.2-.153-.4-.229-.6v-9.36Z" transform="translate(0.01 -165.86)" fill="#fff"/>
      <path id="Path_3498" data-name="Path 3498" d="M329.4,202.428a4.962,4.962,0,0,1-1.394,2.275,4.55,4.55,0,0,1-3.063,1.021c-1.713.013-3.425.006-5.139,0-.509,0-.546-.045-.413-.524a3.346,3.346,0,0,0,.087-.91q0-7,0-13.994a8.053,8.053,0,0,0-.41-2.524c-.123-.375-.079-.536.359-.52a39.269,39.269,0,0,1,4.077.085,6.764,6.764,0,0,1,5.767,5.24c.04.163.086.325.129.486v9.36Z" transform="translate(-282.417 -165.763)" fill="#fff"/>
      <path id="Path_3499" data-name="Path 3499" d="M119.824,178.4q-4.474,0-8.946,0a5.77,5.77,0,0,1-.867-.062,1.334,1.334,0,0,1-1.12-1.122,4.276,4.276,0,0,1-.06-.684q-.005-6.423,0-12.845a6.948,6.948,0,0,1,7.192-7.3c2.539-.01,5.077-.019,7.616,0a6.859,6.859,0,0,1,6.549,3.982,7.3,7.3,0,0,1,.657,3.3q.015,6.423,0,12.845a4.444,4.444,0,0,1-.063.73,1.334,1.334,0,0,1-1.1,1.092,6.069,6.069,0,0,1-.913.065q-4.474.007-8.946,0Z" transform="translate(-96.343 -138.436)" fill="#fff"/>
      <path id="Path_3500" data-name="Path 3500" d="M141.577,0a8.2,8.2,0,1,1-8.219,8.026A8.179,8.179,0,0,1,141.577,0Z" transform="translate(-118.059 0.002)" fill="#fff"/>
      <path id="Path_3501" data-name="Path 3501" d="M32.425,78.416A6.154,6.154,0,1,1,38.608,72.2,6.239,6.239,0,0,1,32.425,78.416Z" transform="translate(-23.272 -58.524)" fill="#fff"/>
      <path id="Path_3502" data-name="Path 3502" d="M282.166,78.434a6.193,6.193,0,0,1-6.15-6.186,6.156,6.156,0,0,1,12.312.062A6.2,6.2,0,0,1,282.166,78.434Z" transform="translate(-244.353 -58.542)" fill="#fff"/>
    </g>
  </g>
</svg>
